<?xml version="1.0" encoding="UTF-8" standalone="no"?><!DOCTYPE svg PUBLIC "-//W3C//DTD SVG 1.1//EN" "http://www.w3.org/Graphics/SVG/1.1/DTD/svg11.dtd"><svg width="100%" height="100%" viewBox="0 0 844 434" version="1.1" xmlns="http://www.w3.org/2000/svg" xmlns:xlink="http://www.w3.org/1999/xlink" xml:space="preserve" xmlns:serif="http://www.serif.com/" style="fill-rule:evenodd;clip-rule:evenodd;stroke-linejoin:round;stroke-miterlimit:2;"><rect id="Mesa-de-trabajo2" serif:id="Mesa de trabajo2" x="0" y="-0" width="843.12" height="433.617" style="fill:none;"/><g><path d="M64.376,238.612c-0.05,1.476 0.204,3.588 0.764,6.336l0.611,3.13c0.152,1.222 0.229,2.291 0.229,3.207c-0,0.763 0.33,1.323 0.992,1.679c24.887,12.978 45.398,23.259 61.532,30.842c-0.713,0.916 -0.611,1.782 0.305,2.596c0.865,0.814 1.705,0.789 2.519,-0.076c1.374,-1.425 3.359,-2.876 5.955,-4.352l3.206,-1.832c1.171,-0.763 2.189,-1.451 3.054,-2.061c1.069,-0.815 2.468,-2.061 4.199,-3.741l2.061,-1.909l2.137,-1.832c0.56,-0.458 0.764,-1.018 0.611,-1.679c-0.153,-0.56 -0.534,-0.993 -1.145,-1.298c-0.153,-0.865 -0.229,-1.909 -0.229,-3.13l-0,-3.206c-0,-0.357 -0.025,-0.84 -0.076,-1.451l-0.229,-1.603c-0.102,-1.222 0.025,-2.163 0.381,-2.825c0.102,-0.203 0.178,-0.432 0.229,-0.687c0.306,-0.458 0.433,-0.916 0.382,-1.374c-0.102,-0.509 -0.433,-0.916 -0.992,-1.221c-3.868,-2.036 -9.569,-4.555 -17.101,-7.558c-0.662,-0.255 -1.578,-0.636 -2.748,-1.145l-2.901,-1.298c-2.392,-1.069 -4.403,-1.807 -6.031,-2.214c4.631,-0.916 8.041,-2.138 10.23,-3.664c0.458,-0.051 0.814,-0.204 1.068,-0.459c3.054,-2.697 6.82,-5.623 11.299,-8.779c0.763,-0.509 1.73,-1.069 2.901,-1.679l1.603,-0.84l1.527,-0.84c2.596,-1.323 4.479,-2.57 5.649,-3.741c0.865,-0.967 0.815,-1.908 -0.152,-2.824c0.305,-0.357 0.458,-0.764 0.458,-1.222l-0,-2.443l-0.077,-2.443c0,-1.934 0.051,-3.588 0.153,-4.962l0.076,-1.756l0.306,-0.229l0.381,-0.152c0.408,-0.306 0.509,-0.713 0.306,-1.222c-0.204,-0.509 -0.535,-0.712 -0.993,-0.611c0,-1.832 0.128,-3.257 0.382,-4.275c0.305,-1.018 -0.025,-1.756 -0.992,-2.214c-0.967,-0.407 -1.756,-0.254 -2.367,0.458l-0.076,0l-0.153,0.077l-0.153,-0l-0.076,0.076l-0.153,0c-0.814,0.204 -1.756,0.662 -2.824,1.374c-0.204,-0.967 -0.789,-1.374 -1.756,-1.221c-12.368,1.527 -29.061,6.514 -50.08,14.963c-7.482,3.003 -13.717,6.412 -18.704,10.23c-0.407,0.305 -0.993,0.738 -1.756,1.297l-1.909,1.375c-1.577,1.17 -2.875,2.188 -3.893,3.053c-3.003,2.596 -5.013,5.064 -6.031,7.405c-0.509,0.102 -0.891,0.357 -1.145,0.764l-0.764,3.206Zm70.922,-35.881c-3.715,2.393 -7.507,5.319 -11.375,8.78l-1.374,0.382l0.84,-0.764c1.068,-0.916 2.315,-1.959 3.74,-3.13l3.894,-2.977c0.407,-0.357 0.432,-0.738 0.076,-1.145l4.199,-1.146Zm-13.436,3.97c2.036,-0.712 4.224,-1.399 6.565,-2.061l-3.283,2.519c-1.17,0.916 -2.213,1.782 -3.13,2.596c-1.119,1.018 -2.442,2.29 -3.969,3.817c-2.189,0.865 -4.352,1.73 -6.489,2.596l2.748,-2.825l1.603,-1.756c0.764,-0.763 1.4,-1.374 1.909,-1.832c1.527,-1.527 2.875,-2.545 4.046,-3.054Zm-6.26,2.749l-0.84,0.763c-0.916,0.916 -2.239,2.239 -3.97,3.97l-1.908,1.985l-1.985,1.985l-4.275,1.755l4.122,-3.664c1.527,-1.425 2.85,-2.697 3.97,-3.817c0.305,-0.305 0.407,-0.611 0.305,-0.916c-0.102,-0.306 -0.305,-0.535 -0.61,-0.687l6.031,-2.291l-0.84,0.917Zm-17.024,8.626l1.297,-1.298c0.56,-0.509 1.044,-0.814 1.451,-0.916c0.407,-0.102 0.636,-0.331 0.687,-0.687c0.051,-0.356 -0.051,-0.661 -0.305,-0.916l7.405,-2.901c-1.374,1.323 -3.258,3.079 -5.65,5.268l-2.901,2.519l-2.824,2.596c-1.323,0.509 -2.723,1.068 -4.199,1.679c0.305,-0.356 0.738,-0.814 1.298,-1.374l0.687,-0.687l0.611,-0.687c0.61,-0.764 1.425,-1.629 2.443,-2.596Zm-0.458,-2.366l-1.909,1.984l-0.534,0.611l-1.375,1.451l-1.297,1.45c-0.408,0.356 -0.84,0.916 -1.298,1.68l-0.611,0.839l-0.687,0.84l-0.153,0.306l-3.053,1.297l-3.13,1.298c2.137,-2.799 4.707,-5.751 7.71,-8.855c1.629,-0.866 3.741,-1.833 6.337,-2.901Zm-12.368,6.565c-1.679,2.036 -3.333,4.199 -4.962,6.489l-0.534,0.229c-0.713,0.255 -2.036,0.891 -3.97,1.909l-2.443,1.374c-0.967,0.509 -1.807,0.941 -2.519,1.298c1.425,-1.934 3.74,-4.021 6.947,-6.26l1.985,-1.375l1.984,-1.297c1.731,-1.12 2.901,-1.909 3.512,-2.367Zm60.005,48.782l-2.061,1.833c-1.578,1.425 -2.978,2.519 -4.199,3.282l-1.985,1.145l-1.909,1.069c-1.425,0.865 -2.621,1.654 -3.588,2.367c-0.203,-1.069 -0.356,-2.189 -0.458,-3.359c0.56,-0.153 1.273,-0.56 2.138,-1.222c2.188,-1.628 4.071,-2.799 5.649,-3.512c1.171,-0.508 2.57,-1.323 4.199,-2.442l3.97,-2.596l0.229,1.527l-1.985,1.908Zm1.221,-14.352c0,0.407 0.051,1.043 0.153,1.909c-0.255,0.051 -0.458,0.229 -0.611,0.534c-0.254,0.458 -0.916,0.992 -1.985,1.603l-1.221,0.764c-0.509,0.254 -0.865,0.458 -1.069,0.61l-5.039,3.207l-3.13,1.832c-1.272,0.916 -1.984,1.832 -2.137,2.748c-0.051,0.306 0.025,0.56 0.229,0.764c0.153,0.203 0.356,0.356 0.611,0.458c0.254,0.051 0.458,0.025 0.61,-0.077c0.255,-0.101 0.408,-0.305 0.458,-0.61c0.051,-0.56 0.611,-1.171 1.68,-1.833c0.305,-0.254 0.738,-0.534 1.298,-0.839l0.992,-0.535l4.581,-2.901c0.254,-0.203 0.636,-0.432 1.145,-0.687l1.298,-0.763c1.119,-0.662 1.959,-1.247 2.519,-1.756l0.076,2.137l0,2.138c-0.661,0.356 -1.399,0.814 -2.214,1.374l-2.137,1.451c-1.832,1.221 -3.334,2.112 -4.504,2.672l-1.833,0.839c-0.712,0.357 -1.323,0.713 -1.832,1.069l-0.84,0.611l-0.839,0.763c-0.713,0.56 -1.324,0.967 -1.833,1.222c-0.254,-3.97 -0.076,-6.973 0.535,-9.009c0.305,-0.305 0.789,-0.687 1.45,-1.145l0.84,-0.534c0.356,-0.204 0.611,-0.382 0.764,-0.534c1.272,-0.967 3.104,-2.138 5.496,-3.512l2.29,-1.298l2.291,-1.221c0.203,-0.102 0.483,-0.306 0.839,-0.611l1.069,-0.84Zm-6.489,-5.115c-0.509,0.56 -1.298,1.222 -2.366,1.985l-2.596,1.832l-1.222,1.145l-1.297,1.146c-1.018,0.865 -2.011,1.399 -2.978,1.603c-0.254,0.051 -0.432,0.203 -0.534,0.458c-0.153,0.203 -0.178,0.432 -0.076,0.687c0.05,0.254 0.178,0.458 0.381,0.611c0.204,0.152 0.458,0.203 0.764,0.152c0.916,-0.203 1.832,-0.636 2.748,-1.298l2.29,-1.984c0.458,-0.408 0.993,-0.84 1.603,-1.298l1.68,-1.145c1.374,-1.018 2.392,-1.883 3.054,-2.596c0.152,-0.153 0.229,-0.356 0.229,-0.611l2.824,1.222l-1.374,1.069c-0.661,0.407 -1.654,0.967 -2.977,1.679l-3.054,1.68l-1.527,0.916l-1.603,0.916c-1.323,0.814 -2.417,1.552 -3.283,2.214c-1.577,-1.069 -3.511,-2.036 -5.802,-2.901c0.611,-0.306 1.375,-0.866 2.291,-1.68l1.069,-0.992c0.407,-0.357 0.737,-0.636 0.992,-0.84l5.039,-3.817l2.29,-1.603l3.435,1.45Zm-5.496,-2.29c-1.12,0.712 -2.494,1.705 -4.123,2.977l-2.061,1.451l-2.748,2.214l-0.764,0.763c-0.611,0.56 -1.17,0.891 -1.679,0.993c-0.306,0.05 -0.509,0.254 -0.611,0.61l-3.206,-0.916c0.61,-0.407 1.323,-0.916 2.137,-1.527l0.993,-0.839l0.992,-0.764c1.221,-0.967 2.596,-2.087 4.122,-3.359c0.102,-0.102 0.331,-0.331 0.688,-0.687l0.916,-0.84c0.865,-0.763 1.552,-1.272 2.061,-1.527l3.283,1.451Zm-5.344,-2.367c-0.509,0.357 -1.095,0.84 -1.756,1.451l-1.603,1.45l-2.138,1.833c-0.916,0.814 -1.654,1.475 -2.214,1.984c-1.832,1.476 -3.461,2.494 -4.886,3.054l-4.351,-0.916c2.086,-1.527 4.071,-3.079 5.954,-4.657l1.909,-1.45l1.909,-1.375l0.992,-0.763l0.916,-0.763c0.814,-0.611 1.527,-1.044 2.138,-1.298c0.763,0.356 1.806,0.84 3.13,1.45Zm-5.573,-2.366c-0.764,0.407 -1.68,1.043 -2.749,1.908l-1.221,0.993l-1.222,0.916l-1.832,1.45l-1.832,1.527c-1.578,1.273 -2.825,2.24 -3.741,2.901c-0.407,0.306 -0.509,0.713 -0.305,1.222c-1.476,-0.357 -2.672,-0.637 -3.588,-0.84l-1.68,-0.611c1.069,-0.254 2.214,-0.916 3.436,-1.985c0.407,-0.356 0.89,-0.814 1.45,-1.374l0.687,-0.763l0.687,-0.611c1.578,-1.629 3.97,-3.614 7.177,-5.955c1.323,0.153 2.9,0.56 4.733,1.222Zm-21.681,8.092c0.152,-0.407 0.61,-0.916 1.374,-1.527l0.916,-0.687c0.356,-0.254 0.585,-0.458 0.687,-0.611c1.425,-1.527 2.57,-2.723 3.435,-3.588l1.298,-1.221l1.374,-1.145c1.12,-1.018 1.985,-1.858 2.596,-2.52l1.908,-0.381c-0.101,0.458 -0.05,0.89 0.153,1.298l0.306,0.61l-0,0.077c-1.375,0.967 -2.494,1.832 -3.36,2.595l-3.511,3.817c-1.578,1.578 -3.003,2.545 -4.275,2.901c-0.306,0.051 -0.509,0.229 -0.611,0.535c-0.102,0.305 -0.076,0.585 0.076,0.839l-2.366,-0.992Zm-3.359,-3.512l5.038,-5.038c2.443,-0.815 4.581,-1.451 6.413,-1.909l-2.443,2.138c-0.967,0.814 -1.73,1.527 -2.29,2.137l-1.909,1.985c-0.763,0.764 -1.425,1.4 -1.985,1.909c-0.56,0.509 -0.941,0.992 -1.145,1.45l-2.901,-1.45l0.84,-0.916c0.102,-0.102 0.203,-0.179 0.305,-0.229l0,-0.077l0.077,0Zm-3.054,0.229c-1.629,-0.865 -2.952,-1.552 -3.97,-2.061c2.189,-0.407 4.911,-1.094 8.169,-2.061l-0.916,0.916l-0.993,0.84l-2.29,2.366Zm26.796,-13.818c-1.731,0.56 -4.097,1.069 -7.1,1.527l-3.588,0.535c-1.374,0.254 -2.57,0.509 -3.588,0.763c-1.272,0.305 -2.977,0.814 -5.115,1.527l-2.748,0.916l-2.825,0.916c-4.58,1.425 -8.27,2.189 -11.069,2.29c-0.815,-0.559 -1.527,-0.432 -2.138,0.382l-0.382,0.534c-0.865,0.255 -1.297,0.866 -1.297,1.833c-0.051,1.018 0.407,1.628 1.374,1.832c2.29,0.509 5.42,1.832 9.39,3.97l2.366,1.221l2.367,1.298c1.781,0.916 3.308,1.603 4.58,2.061c1.578,0.611 3.614,1.196 6.108,1.756l6.718,1.527c5.649,1.221 9.822,2.646 12.52,4.275c-0.306,0.458 -0.407,0.916 -0.306,1.374c-0.865,3.359 -0.941,7.736 -0.229,13.131l-14.81,-7.176l-14.886,-7.253c-1.171,-0.56 -2.723,-1.221 -4.657,-1.985l-2.52,-1.068l-2.672,-1.069c-4.529,-1.832 -8.066,-3.486 -10.611,-4.962c-7.736,-4.581 -10.917,-10.23 -9.543,-16.948c0.865,-0.255 1.934,-0.738 3.207,-1.451l1.45,-0.916l1.527,-0.763c2.901,-1.527 6.616,-3.207 11.146,-5.039l5.802,-2.214l2.901,-1.068l2.824,-1.146c1.883,-0.763 4.835,-1.984 8.856,-3.664l4.504,-1.909l4.581,-1.908c0.356,0.153 0.687,0.102 0.992,-0.153l0.229,-0.305c5.14,-1.985 9.619,-3.486 13.436,-4.504c-0.051,0.916 -0.051,2.061 0,3.435l0.077,1.756l-0,1.603l0.076,2.672l0.153,2.748c0.152,2.291 0.203,4.072 0.152,5.344l0,0.229c0,0.458 0.128,0.84 0.382,1.145c-0.916,0.509 -2.29,1.095 -4.122,1.756c-0.56,0.204 -1.247,0.433 -2.062,0.687l-0.839,0.229c-0.306,0.102 -0.509,0.179 -0.611,0.229Zm6.947,-25.803l-1.298,0.382c3.868,-3.156 7.66,-5.777 11.375,-7.864c0.255,-0.152 0.407,-0.381 0.458,-0.687c1.985,-0.407 3.741,-0.738 5.268,-0.992l-1.756,1.069l-1.68,1.068c-0.661,0.408 -1.577,0.917 -2.748,1.527l-1.45,0.764l-1.527,0.763c-2.494,1.273 -4.301,2.494 -5.421,3.665l-1.221,0.305Zm3.97,2.901c0.407,-0.204 0.636,-0.56 0.687,-1.069c0.56,-0.407 1.374,-0.865 2.443,-1.374l1.221,-0.534c0.458,-0.204 0.789,-0.382 0.993,-0.535c0.865,-0.509 1.883,-1.145 3.053,-1.908l4.734,-3.207l2.061,-1.298c1.679,-1.17 3.079,-1.984 4.199,-2.442l-0,1.908l-0.077,1.909l-2.748,1.45c-1.12,0.611 -2.138,1.171 -3.054,1.68c-2.443,1.374 -4.529,2.57 -6.26,3.588c-4.682,2.799 -6.769,4.529 -6.26,5.191c-0.153,-0.204 -0.382,-0.331 -0.687,-0.382c-0.254,0 -0.483,0.051 -0.687,0.153c0,-1.222 0.127,-2.265 0.382,-3.13Zm-0.153,9.237c0,-0.509 -0.025,-1.221 -0.076,-2.137l-0.153,-2.367c0.305,0.305 0.611,0.407 0.916,0.305c1.527,-0.559 3.334,-1.628 5.42,-3.206l2.596,-1.985c1.069,-0.763 1.934,-1.374 2.596,-1.832c1.068,-0.712 2.392,-1.476 3.969,-2.29l2.062,-0.993l1.985,-0.992c-0.102,1.425 -0.128,3.181 -0.077,5.267c-1.069,0.306 -2.366,0.917 -3.893,1.833l-1.832,1.145c-0.764,0.509 -1.349,0.865 -1.756,1.069c-4.784,2.748 -8.703,5.191 -11.757,7.328l0,-1.145Zm18.398,-3.511l-1.526,0.839l-1.604,0.764c-0.203,-0.458 -0.559,-0.636 -1.068,-0.535c-0.509,0.153 -1.069,0.433 -1.68,0.84l-1.527,1.069c-2.086,1.323 -3.842,2.341 -5.267,3.054l-2.825,1.297c-1.272,0.662 -2.163,1.324 -2.672,1.985l-0.153,-2.443l0.382,-0.152c3.156,-2.291 6.82,-4.632 10.993,-7.024c0.458,-0.254 1.069,-0.611 1.833,-1.069l1.908,-1.221c1.629,-1.018 2.977,-1.705 4.046,-2.061l0,2.137c0,0.407 0.153,0.789 0.458,1.145c-0.356,0.204 -0.738,0.586 -1.145,1.146l-0.153,0.229Zm-46.034,-25.957c-0.407,0.051 -0.992,-0.178 -1.755,-0.687l-0.917,-0.61c-0.305,-0.255 -0.534,-0.433 -0.687,-0.535c-1.628,-0.916 -2.926,-1.018 -3.893,-0.305c-0.255,0.203 -0.382,0.432 -0.382,0.687c-0.051,0.254 -0.025,0.483 0.077,0.687c0.152,0.254 0.33,0.407 0.534,0.458c0.254,0.051 0.509,0 0.763,-0.153c0.407,-0.305 0.993,-0.254 1.756,0.153l0.916,0.534l0.382,0.306l1.68,0.992c0.559,0.306 1.068,0.433 1.526,0.382c0.611,-0.051 0.916,-0.382 0.916,-0.993c0,-0.661 -0.305,-0.967 -0.916,-0.916Zm5.115,-3.435c-0.152,-0.509 -0.458,-0.992 -0.916,-1.451l-1.221,-1.297c-0.458,-0.458 -1.044,-1.044 -1.756,-1.756l-1.832,-1.756c-0.204,-0.204 -0.433,-0.28 -0.687,-0.229c-0.255,-0 -0.484,0.076 -0.688,0.229c-0.152,0.204 -0.254,0.433 -0.305,0.687c0,0.255 0.102,0.484 0.305,0.687l3.054,2.901l1.68,1.832c0.254,0.204 0.407,0.407 0.458,0.611c0.102,0.305 0.28,0.509 0.534,0.611c0.204,0.102 0.433,0.102 0.687,-0c0.255,-0.051 0.458,-0.178 0.611,-0.382c0.153,-0.204 0.178,-0.433 0.076,-0.687Zm2.138,-10.535c-0.153,-0.255 -0.382,-0.407 -0.687,-0.458c-0.255,-0 -0.484,0.051 -0.687,0.152c-0.204,0.153 -0.357,0.331 -0.458,0.535c-0.051,0.254 -0,0.509 0.152,0.763c1.425,1.985 2.138,4.174 2.138,6.566c-0,0.305 0.102,0.534 0.305,0.687c0.153,0.152 0.382,0.229 0.687,0.229c0.255,-0 0.458,-0.077 0.611,-0.229c0.204,-0.153 0.305,-0.382 0.305,-0.687c0,-2.8 -0.788,-5.319 -2.366,-7.558Zm21.986,-3.283c0.102,-0.203 -0.025,-0.178 -0.381,0.076l-0.382,0.306l-1.222,1.298l-0.916,1.068c-0.458,0.56 -0.916,1.222 -1.374,1.985l-0.382,0.611l-0.305,0.687c-0.305,0.56 -0.585,0.967 -0.84,1.222c-0.254,0.203 -0.356,0.432 -0.305,0.687c-0,0.254 0.102,0.483 0.305,0.687c0.153,0.152 0.357,0.254 0.611,0.305c0.254,0 0.483,-0.102 0.687,-0.305c0.305,-0.255 0.585,-0.611 0.84,-1.069l0.611,-1.221c0.559,-0.917 1.196,-1.782 1.908,-2.596l0.916,-1.145c0.356,-0.458 0.713,-0.789 1.069,-0.993c0.56,-0.407 0.916,-0.789 1.069,-1.145c0.203,-0.56 -0,-0.916 -0.611,-1.069c-0.611,-0.203 -1.043,0 -1.298,0.611Zm7.558,3.894c-0.611,0.152 -1.323,0.534 -2.138,1.145l-0.992,0.763l-0.992,0.687c-1.68,1.018 -2.698,2.163 -3.054,3.436c-0.102,0.305 -0.076,0.559 0.076,0.763c0.102,0.204 0.28,0.331 0.535,0.382c0.254,0.051 0.483,0.025 0.687,-0.077c0.254,-0.101 0.432,-0.28 0.534,-0.534c0.153,-0.56 0.56,-1.094 1.222,-1.603l0.839,-0.611l0.84,-0.534l1.603,-1.222c0.662,-0.509 1.273,-0.814 1.833,-0.916c0.356,-0.051 0.585,-0.28 0.687,-0.687l0.076,-0.229c0.102,-0.509 -0.102,-0.891 -0.611,-1.145c-0.509,-0.204 -0.89,-0.076 -1.145,0.382Zm5.726,8.092c-0.051,0.051 -0.178,0.102 -0.382,0.152l-0.534,0.153c-0.458,0.204 -1.069,0.535 -1.833,0.993l-1.603,1.145c-0.661,0.407 -1.272,0.61 -1.832,0.61c-0.305,-0.05 -0.56,0.026 -0.763,0.229c-0.153,0.204 -0.229,0.433 -0.229,0.688c-0,0.254 0.076,0.483 0.229,0.687c0.203,0.203 0.458,0.305 0.763,0.305c0.713,0 1.451,-0.204 2.214,-0.611l0.992,-0.534l0.993,-0.687c0.661,-0.407 1.476,-0.815 2.443,-1.222c0.61,-0.254 1.018,-0.585 1.221,-0.992c0.306,-0.509 0.178,-0.942 -0.382,-1.298c-0.559,-0.305 -0.992,-0.178 -1.297,0.382Z" style="fill-rule:nonzero;"/><path d="M283.554,92.494l1.145,0c9.262,-0.305 19.569,5.878 30.918,18.551c11.248,15.268 18.042,27.559 20.383,36.873c0.255,2.647 -0.203,6.057 -1.374,10.23c-0.814,-0 -1.247,-0.382 -1.298,-1.145l-0.229,-2.367c-0.661,-6.362 -5.7,-17.126 -15.115,-32.292c-0.916,-2.392 -5.573,-7.609 -13.971,-15.65c-9.517,-7.584 -16.642,-11.299 -21.376,-11.146l-3.511,0.687l-2.367,0.076c0.153,-1.221 1.247,-2.265 3.283,-3.13l0.076,0.611c1.222,-0.814 2.367,-1.247 3.436,-1.298Zm-79.701,2.748c0.661,0.408 1.425,0.611 2.29,0.611l0.076,1.68c-9.212,7.532 -15.192,12.927 -17.94,16.184c-2.036,2.189 -3.639,3.283 -4.809,3.283c0.101,1.323 -0.764,2.214 -2.596,2.672l-0.076,-1.145c1.323,-4.174 6.87,-10.51 16.642,-19.009c1.629,-1.578 3.766,-3.003 6.413,-4.276Zm32.598,-2.519c0.916,0.764 1.654,1.145 2.214,1.145l0.229,3.894c-3.054,-0.051 -11.579,5.853 -25.575,17.711c-0.051,-0.305 -0.229,-0.484 -0.534,-0.534c0.051,1.475 -1.68,3.46 -5.191,5.954c-7.431,7.075 -13.895,13.971 -19.391,20.689c-0.967,-0 -2.011,0.89 -3.13,2.672c-1.222,1.527 -2.443,2.595 -3.665,3.206l0,0.611l-1.603,-0.077l-0.076,-1.068c0.916,-0 1.908,-1.807 2.977,-5.421c0.509,-0.101 2.774,-2.646 6.795,-7.634c-0.102,-2.137 7.405,-9.924 22.52,-23.36c0,0.356 0.178,0.534 0.535,0.534c-0.051,-1.323 1.883,-3.13 5.802,-5.42c4.071,-4.632 9.899,-8.932 17.482,-12.902l0.611,0Zm25.345,16.414c0.407,-0 0.611,0.178 0.611,0.534l2.977,-0.534l0.611,0.076l4.122,0.611l0,-0.535c2.749,0.662 6.133,1.298 10.154,1.909l-0.077,-0.611c5.09,1.832 10.154,3.893 15.192,6.184c0.917,0.051 1.934,0.865 3.054,2.443c5.599,3.257 9.721,6.896 12.367,10.917c9.62,10.687 15.498,21.502 17.635,32.445c2.24,5.496 3.461,10.077 3.665,13.741l0.076,2.978c0.051,0.407 0.28,0.61 0.687,0.61l-0.534,1.145l-0,0.611l0.763,2.978l-0.61,-0l0.687,1.145l0.305,5.954c-0,0.407 -0.204,0.611 -0.611,0.611l0.687,1.221c-0.203,20.613 -1.679,35.245 -4.428,43.897c-3.613,9.823 -7.837,19.671 -12.672,29.544c-3.054,7.278 -7.227,14.531 -12.52,21.758c-4.174,5.496 -6.617,8.245 -7.329,8.245c-4.428,6.107 -11.4,13.105 -20.918,20.993c-15.675,10.892 -30.002,16.796 -42.98,17.712l-11.757,1.527l-1.221,-0.611c-0.356,-0 -0.535,0.203 -0.535,0.611c-3.562,-0.509 -5.343,-0.967 -5.343,-1.375l-1.222,0.611l-1.756,0l-1.221,-0.687l-0.535,1.222c-2.748,-0.458 -4.555,-0.891 -5.42,-1.298c-0.763,0.407 -1.349,0.61 -1.756,0.61l0,-0.61l-1.221,0.534l-2.901,-0.611l-0,0.611c-4.021,-1.069 -6.082,-2.901 -6.184,-5.496l-0.076,-1.146c-0,-0.407 0.203,-0.61 0.61,-0.61l-1.45,-3.588c0.763,-1.833 1.094,-3.614 0.992,-5.344c-0.407,-0 -0.61,-0.204 -0.61,-0.611l0.61,-0l-0.687,-1.145l0.535,-1.222c-0,-0.356 -0.204,-0.534 -0.611,-0.534c-0.051,-0.458 0.127,-1.069 0.534,-1.832c-1.17,-6.464 -1.806,-10.637 -1.908,-12.52l0.458,-2.978c-0.611,-4.377 -1.12,-6.565 -1.527,-6.565l0.534,-1.145l-0.152,-4.199c-0.051,-0.356 -0.28,-0.534 -0.687,-0.534c-0,-0.407 0.203,-0.611 0.61,-0.611l-0.992,-7.1l-0.382,-9.008c-0.101,-1.425 0,-3.206 0.306,-5.344l-0.687,-1.222c-0,-0.356 0.203,-0.534 0.61,-0.534c-0.051,-0.458 -0.28,-1.069 -0.687,-1.832c0.204,-4.021 0.255,-7.176 0.153,-9.466l0.534,-1.222l-0.61,0c-0.051,-0.407 0.127,-0.611 0.534,-0.611l-0.763,-4.122l-0.611,-12.52c-0.051,-0.407 -0.28,-0.611 -0.687,-0.611c-0,-0.407 0.203,-0.611 0.61,-0.611c-0.712,-3.715 -1.246,-6.082 -1.603,-7.099l0.611,-0l-0.687,-1.222c-0,-0.407 0.204,-0.611 0.611,-0.611c-0.458,-0.763 -0.687,-1.348 -0.687,-1.755c0.356,-0.764 0.534,-1.349 0.534,-1.756l-0.611,-0c-0.051,-0.407 0.128,-0.611 0.535,-0.611l-1.603,-9.543c-0.051,-1.018 0.05,-2.621 0.305,-4.809c-0.611,-5.497 -1.043,-10.841 -1.298,-16.032l-0.076,-0.534l-0.764,-2.978l0.611,0c0,-0.407 -0.204,-0.611 -0.611,-0.611c0.611,-3.359 0.764,-7.735 0.458,-13.13l-0.229,-5.955c-0.051,-0.407 -0.254,-0.611 -0.61,-0.611c0.05,-0.865 9.059,-10.204 27.025,-28.017c-0.051,-1.069 2.621,-3.206 8.015,-6.413c0.56,-2.545 8.398,-7.558 23.514,-15.039l0.076,0.611l7.482,-4.046l-0,0.534l5.878,-2.214c0.763,0.407 1.349,0.611 1.756,0.611c-0,-0.407 0.203,-0.611 0.61,-0.611l0,0.611c1.68,-0.764 3.817,-1.298 6.413,-1.603Zm-49.698,-9.085c1.476,0.509 2.239,1.069 2.29,1.679l0.076,2.138c-3.257,-0.051 -8.83,4.199 -16.719,12.749c-8.601,8.957 -13.487,13.462 -14.657,13.513l-0.535,-0l-0.076,-0.459c0.356,-0.712 0.509,-1.297 0.458,-1.755c-0.356,-0 -0.534,-0.153 -0.534,-0.458c9.212,-12.368 17.329,-20.816 24.353,-25.346l2.137,-1.603l1.069,0.534l2.138,-0.992Zm42.446,17.788c-0.051,-0.357 -0.28,-0.535 -0.687,-0.535l0.076,0.535l-1.222,-0.535l-9.848,3.97c0.051,0.814 -0.33,1.196 -1.145,1.145c0,-0.407 -0.203,-0.611 -0.61,-0.611c-0.051,0.56 -4.097,2.85 -12.139,6.871c-1.628,2.087 -5.446,5.013 -11.451,8.779c-2.85,3.614 -5.853,6.515 -9.008,8.703c-0.051,4.784 -0.331,7.176 -0.84,7.176c-0,0.408 0.203,0.611 0.611,0.611l-0.458,2.367l0.839,5.344c0.051,0.763 -0.127,1.145 -0.534,1.145l0.916,6.031l0.382,7.71c0.254,5.09 0.738,10.637 1.45,16.643c-0.356,1.476 -0.483,3.257 -0.382,5.344l0.764,2.443l-0.534,1.145c0.407,0.712 0.636,1.527 0.687,2.443l0.076,0.534c-0,0.407 -0.204,0.611 -0.611,0.611c0,0.407 0.204,0.611 0.611,0.611c-0.305,2.086 -0.433,3.282 -0.382,3.588c0.102,2.29 0.458,5.445 1.069,9.466c-0.254,3.512 -0.356,5.7 -0.305,6.565c0.61,4.021 0.967,7.202 1.068,9.543l-0.61,-0.076l0.687,1.298l0.381,8.244c0.051,0.408 0.28,0.611 0.688,0.611l-0.535,1.222l0,0.61c0,0.357 0.204,0.535 0.611,0.535l-0.534,1.221l0.076,0.611c0.051,1.171 0.28,1.756 0.687,1.756c-0,0.407 -0.178,0.992 -0.534,1.756c0.967,11.196 1.704,17.965 2.213,20.307l-0.534,1.145c0.051,0.814 0.28,1.221 0.687,1.221c-0.254,3.97 -0.331,6.947 -0.229,8.932l0.534,10.688c0.051,0.356 0.28,0.534 0.688,0.534l-0.535,1.222c0.306,6.362 1.629,9.543 3.97,9.543l4.199,0.076l2.901,-0.458l-0,0.534c5.191,-0.661 8.321,-1.196 9.39,-1.603l0.076,0.611l1.145,-0.611c0.356,0.051 0.56,0.28 0.611,0.687c1.272,-0.814 2.443,-1.221 3.512,-1.221l-0,0.61c12.367,-1.934 21.35,-4.351 26.948,-7.252c4.886,-1.476 9.874,-4.352 14.963,-8.627c1.782,-0.509 6.337,-4.198 13.665,-11.069c8.551,-11.451 14.454,-19.671 17.712,-24.659c7.074,-16.438 10.433,-28.068 10.077,-34.888c0.611,-2.646 1.094,-8.779 1.45,-18.398l-0.61,-0l0.61,-1.222l-0.763,-14.81c-0.356,-7.38 -2.85,-18.144 -7.482,-32.292c-1.577,-3.41 -4.377,-7.813 -8.397,-13.207c-6.82,-9.263 -15.421,-15.956 -25.804,-20.078c-8.143,-2.138 -13.945,-3.232 -17.406,-3.283l-4.122,-0.076c-0.763,0.814 -3.512,1.374 -8.245,1.679c0.051,0.356 -0.127,0.535 -0.534,0.535Zm-68.021,49.316l0.687,3.054l-0.534,1.221c0.407,0.662 0.636,1.451 0.687,2.367l-0,0.611c0.051,0.407 -0.102,0.61 -0.458,0.61c0.458,2.342 0.891,3.512 1.298,3.512l-0.535,1.222l0,0.61c0,0.357 0.204,0.535 0.611,0.535l-0.534,1.221l0.229,4.733c0.051,0.408 0.28,0.611 0.687,0.611l-0.535,1.145l0.687,2.978l-0.534,1.221l0.84,3.588l-0.611,0l0.611,1.222l0.458,8.321c-0,0.407 -0.204,0.611 -0.611,0.611l0.687,1.145l0,0.61c0.051,0.408 -0.127,0.611 -0.534,0.611c0.356,1.018 1.196,5.98 2.519,14.887c-0.356,0.661 -0.509,1.425 -0.458,2.29c0.407,0.051 0.611,0.28 0.611,0.687l-0.611,-0.076c0.051,0.407 0.28,0.636 0.687,0.687c0.764,7.329 1.222,12.673 1.374,16.032l0.077,1.755c0.051,0.917 0.28,1.705 0.687,2.367c-0.662,2.087 -0.84,6.286 -0.535,12.596l0.611,13.055c0.051,0.407 -0.127,0.611 -0.534,0.611l0.687,1.145l-0,0.61c-0,0.408 -0.204,0.611 -0.611,0.611l0.687,1.145l0.076,1.833c0.051,0.356 -0.127,0.534 -0.534,0.534c0.407,0.763 0.636,1.374 0.687,1.832c0.56,11.909 1.68,22.801 3.359,32.674c-0.356,0.764 -0.534,1.375 -0.534,1.833l0.687,1.145c-0.255,3.562 -0.56,5.344 -0.916,5.344c0.407,0.814 0.636,1.45 0.687,1.908c0.712,0 3.511,-3.155 8.397,-9.466c0.916,0.051 2.621,-1.705 5.115,-5.268c0.407,0.051 0.586,-0.152 0.535,-0.611c-0.713,-10.687 -1.375,-16.031 -1.985,-16.031l0.458,-2.901l-0.306,-6.566c-0.05,-0.916 0.102,-1.705 0.458,-2.366c-0.458,-0.713 -0.687,-1.502 -0.687,-2.367c-0.101,-1.832 0.026,-3.028 0.382,-3.588c-1.12,-6.209 -1.934,-14.352 -2.443,-24.429l-0.382,-7.787c0,-0.865 -0.229,-1.654 -0.687,-2.367c0.357,-0.712 0.509,-1.501 0.458,-2.366c-0.05,-1.171 -0.279,-1.756 -0.687,-1.756l0.458,-2.977l-0.152,-2.978c-0,-0.407 -0.204,-0.611 -0.611,-0.611c0,-0.407 0.204,-0.61 0.611,-0.61c-0.051,-0.764 -0.28,-1.145 -0.687,-1.145l0.229,-7.176l-0.229,-5.344l-0.916,-5.955l0.61,-0c-0.051,-0.407 -0.28,-0.611 -0.687,-0.611c0,-0.407 0.178,-0.992 0.535,-1.756l-0.764,-4.198c0.356,-0.764 0.509,-1.349 0.458,-1.756c-0.407,-0 -0.61,-0.204 -0.61,-0.611l0.61,-0l-0.687,-1.222l-0.229,-5.343l0.535,-1.146l-0.611,0l0.534,-1.221l-0.076,-1.145c-0,-0.407 -0.204,-0.611 -0.611,-0.611c0,-0.407 0.204,-0.611 0.611,-0.611l-0.916,-5.954l-0.458,-8.932c-0.204,-4.428 -0.662,-10.179 -1.374,-17.253c0.661,-1.629 0.967,-2.8 0.916,-3.512c-0.407,-0.713 -0.637,-1.527 -0.687,-2.443l-15.727,15.726Zm77.487,10.306c0.356,0 0.56,0.204 0.611,0.611l2.901,-0.534l3.588,0.076l1.221,0.611l0,-0.611c8.856,3.868 13.462,8.932 13.818,15.192l0.535,0c-0,0.356 -0.179,0.534 -0.535,0.534c0.56,4.683 0.891,8.067 0.993,10.154l0.076,0.534c0.102,2.138 -0.331,5.319 -1.298,9.543l0.687,1.145c-3.766,10.688 -7.38,17.762 -10.84,21.223c-3.817,3.105 -10.205,5.395 -19.162,6.871l-1.832,-0.076c-0.153,-3.41 -0.509,-6.973 -1.069,-10.688l0.382,-3.588l-0.535,-0c-0.051,-0.408 0.102,-0.611 0.458,-0.611l-1.527,-7.787c0.408,0 0.611,-0.204 0.611,-0.611l-0.611,0l0.535,-1.145l-0.458,-10.077l-0.687,-1.221c0.407,-0 0.585,-0.204 0.534,-0.611c-0.407,-0 -0.611,-0.204 -0.611,-0.611l0.611,0l-0.687,-1.145l-0.458,-10.077c-0.051,-0.407 0.127,-0.611 0.534,-0.611c-0.865,-1.628 -1.374,-3.842 -1.526,-6.642l0.381,-4.122c-0.407,0 -0.611,-0.204 -0.611,-0.611c6.973,-3.461 11.63,-5.165 13.971,-5.115Zm2.672,6.031c0.051,1.171 -3.105,4.886 -9.466,11.146l0.076,2.367c0.153,0.763 0.56,1.145 1.221,1.145c-0.05,-0.662 2.571,-3.563 7.864,-8.703c-0.051,-0.458 1.068,-1.832 3.359,-4.122c-0.051,-0.662 -1.069,-1.273 -3.054,-1.833Zm-1.145,14.276l0.076,1.145c2.138,1.629 4.174,2.443 6.108,2.443c5.191,-4.427 7.812,-6.947 7.863,-7.557l-0,-0.611c-0.102,-1.68 -0.993,-3.868 -2.672,-6.566l-1.756,0c-1.985,1.171 -5.191,4.886 -9.619,11.146Zm8.168,7.863c1.375,3.97 2.367,8.144 2.978,12.521c-0.357,0.712 -0.509,1.501 -0.458,2.366l0.076,1.222l0.611,-0c2.799,-6.311 4.071,-12.266 3.817,-17.864l-0.153,-3.512c-3.715,3.512 -6.005,5.267 -6.871,5.267Zm-15.573,-2.671l-0.458,2.366c0.356,0 0.56,0.178 0.61,0.535l-0.534,-0l0.611,1.221l0.381,7.787c0,0.407 0.204,0.611 0.611,0.611l-0.534,1.145l-0,0.61c0.051,1.222 0.28,1.833 0.687,1.833l-0.458,2.901l0.229,4.809l0.687,1.145c-0.407,0 -0.585,0.204 -0.534,0.611l0.61,-0l-0.61,1.145l0.152,2.443l0.764,2.901c5.852,-1.12 8.728,-3.028 8.626,-5.726c0.56,0 0.993,-2.977 1.298,-8.932l-0.687,-1.145c-0,-0.407 0.204,-0.61 0.611,-0.61c-0.407,-7.533 -4.021,-12.724 -10.841,-15.574l-1.221,-0.076Zm-0.077,117.108l1.145,-0l9.849,-5.115c4.529,-2.85 7.761,-5.777 9.695,-8.779c0.865,-0 6.693,-5.675 17.482,-17.025l0,-0.534c-1.578,1.578 -5.395,4.479 -11.451,8.703c-0.407,1.17 -4.453,3.283 -12.138,6.336c-4.174,3.817 -6.973,7.354 -8.398,10.612c-1.679,-0.051 -3.741,1.883 -6.184,5.802Zm61.532,-25.651l-0,1.145c-0.815,4.326 -1.832,7.481 -3.054,9.466l0,0.535l-1.145,-0.535l-0.534,2.367c0.407,-0 0.636,0.204 0.687,0.611c-0.357,-0 -3.512,4.3 -9.467,12.901c-0.763,0 -2.086,1.349 -3.969,4.047c-0.713,-0 -2.214,1.374 -4.505,4.122c-18.627,15.116 -30.689,22.623 -36.186,22.521c-2.748,-0 -5.191,-1.603 -7.328,-4.81l-0.077,-1.221l5.344,0.687c5.548,-0.764 14.378,-5.751 26.491,-14.963c10.535,-9.314 16.362,-14.988 17.482,-17.024c4.937,-3.766 8.118,-7.863 9.543,-12.291c0.356,0.051 2.595,-2.469 6.718,-7.558Zm-65.578,15.421l-1.298,-0.534l-0.534,-0l-17.94,19.848l1.145,0c5.446,-4.224 9.085,-6.311 10.917,-6.26c7.685,-6.005 11.833,-10.331 12.443,-12.978c1.527,-0.509 2.265,-1.069 2.214,-1.679l-1.145,-0.077c-3.919,0.764 -5.853,1.324 -5.802,1.68Zm-15.344,1.603c0.05,0.713 -4.505,4.784 -13.666,12.215c0.102,1.985 -0.636,2.952 -2.213,2.901l0.152,2.366l0.611,0c4.377,-1.577 8.728,-5.649 13.054,-12.214c-0.407,-0 -0.636,-0.204 -0.687,-0.611c0.56,-0 1.858,-1.349 3.894,-4.046l-0,-0.611l-1.145,0Zm-28.171,16.643l0.535,0.076c2.646,0.051 7.939,-4.81 15.879,-14.581l-1.145,-0c-8.55,7.379 -13.64,12.214 -15.269,14.505Zm-28.246,-8.932l0.076,0.534c0,0.254 -2.646,2.977 -7.939,8.169l-2.443,-1.833c-0.102,-2.29 3.334,-4.58 10.306,-6.87Zm134.667,4.962l-0,0.534c0.203,3.665 -5.624,9.696 -17.482,18.093c-1.425,0.407 -2.545,1.374 -3.359,2.901c-4.632,2.748 -8.525,4.097 -11.681,4.046c-1.628,-0.865 -3.028,-1.298 -4.199,-1.298c-0.05,-0.916 3.41,-2.646 10.383,-5.191c9.873,-5.954 16.948,-10.968 21.223,-15.039c-0.051,-0.713 1.272,-1.705 3.97,-2.977c0.051,-0.764 0.432,-1.12 1.145,-1.069Zm-134.82,3.893c0.764,0.407 1.375,0.611 1.833,0.611l0.076,0.611c-2.189,5.395 -7.227,11.247 -15.116,17.558l-0.61,0l-1.833,-1.221c-0.051,-0.865 2.367,-3.792 7.253,-8.779c3.461,-3.919 5.725,-5.879 6.794,-5.879l1.603,-2.901Zm1.756,11.299l0.611,0.076c0.814,0.102 1.221,0.484 1.221,1.145l0.077,1.832c-0.713,0 -4.962,5.853 -12.749,17.559l-3.817,6.565l-1.68,-0.076c-0.814,0 -1.247,-0.407 -1.298,-1.221l-0.076,-1.145c1.221,-4.53 6.387,-12.19 15.497,-22.979l2.214,-1.756Zm6.871,7.863l0.611,-0c-1.68,9.11 -4.021,13.64 -7.024,13.589c0,-0.814 -0.381,-1.222 -1.145,-1.222c0.255,-1.832 2.774,-5.954 7.558,-12.367Z" style="fill-rule:nonzero;"/><path d="M487.233,90.204c13.843,4.071 20.765,6.642 20.765,7.71c0,0.764 -0.382,1.145 -1.145,1.145l-0.611,0c-14.25,-2.035 -21.375,-4.198 -21.375,-6.489l-0.611,0c-0,-0.814 0.992,-1.603 2.977,-2.366Zm-122.91,3.512l0.534,-0c0.255,1.984 -1.526,5.725 -5.344,11.222l-5.496,17.406c-0.305,5.14 -1.171,7.787 -2.596,7.939l-1.069,-0.381l0.382,-1.069l-0.763,-2.443c0.407,-10.077 4.046,-20.638 10.917,-31.682l3.435,-0.992Zm111.688,4.198c2.799,0 4.962,0.382 6.489,1.145l-0,-0.61l6.565,1.832l0,-0.611c8.143,1.578 15.854,3.766 23.132,6.566l1.145,-0l0,1.145c0,0.814 -0.382,1.221 -1.145,1.221l-2.367,0l-1.221,-0.611l-0,0.611c-8.5,-2.392 -19.976,-4.784 -34.43,-7.176c0.407,-2.341 1.018,-3.512 1.832,-3.512Zm-12.444,8.245c2.29,1.731 7.838,3.512 16.643,5.344c6.769,2.392 15.675,4.962 26.719,7.711c3.563,0.712 5.344,1.323 5.344,1.832l1.222,-0.611l1.145,0c2.036,1.12 5.217,5.471 9.543,13.055c4.733,4.02 7.099,6.998 7.099,8.932c-0.407,0.356 -0.814,3.308 -1.221,8.855c0.407,0 0.611,0.204 0.611,0.611l-0.611,-0l0.611,1.221l-0,5.344c-0,2.087 -0.204,3.868 -0.611,5.344c1.221,13.894 1.832,29.723 1.832,47.485l0.611,-0c-0.407,0.763 -0.611,1.348 -0.611,1.756l0.611,1.221l-0.611,1.145c0,0.815 0.204,1.222 0.611,1.222l-0.611,4.122l0,10.077c0,1.425 -0.204,3.207 -0.611,5.344c0,0.407 0.204,0.611 0.611,0.611l-0.611,4.199l0,3.511c0,0.917 0.204,1.705 0.611,2.367c0,0.407 -0.204,0.611 -0.611,0.611c1.171,11.197 1.756,20.307 1.756,27.33c-0.356,3.461 -0.534,5.446 -0.534,5.955l0.534,3.511c0,5.548 -0.789,8.322 -2.366,8.322c-2.138,1.577 -7.075,3.562 -14.811,5.954l-0.61,1.222l-1.222,-0.611c-7.329,2.341 -17.406,6.896 -30.231,13.665l-13.055,4.733c-4.02,-6.565 -8.983,-12.112 -14.886,-16.642c-0,-0.763 -0.178,-1.145 -0.535,-1.145c1.069,-3.919 1.858,-8.881 2.367,-14.887l-0.611,0l0.611,-1.145l-0,-1.832c-0,-2.087 0.178,-5.446 0.534,-10.077c-0.661,-0 -2.239,3.359 -4.733,10.077l-2.366,1.832l-0.611,0l-6.489,-2.443c-0.967,-0.611 -3.359,-3.766 -7.176,-9.466l-9.467,-10.077l-0.61,-0l-0,0.61c-0.764,10.383 -1.553,16.897 -2.367,19.544l0.611,-0c-0.713,4.631 -1.705,14.327 -2.978,29.086c-0.407,0 -0.814,1.196 -1.221,3.588c-2.494,-1.069 -14.76,-2.85 -36.797,-5.344l-2.977,0.611c-0,-0.407 -0.178,-0.611 -0.535,-0.611l0,0.611c-1.984,-0.407 -2.977,-0.814 -2.977,-1.222c-1.985,0.408 -2.977,0.815 -2.977,1.222c-2.698,-0 -6.845,-4.759 -12.444,-14.276c-1.985,-0.713 -3.766,-3.486 -5.344,-8.321c-3.206,-3.97 -4.987,-5.955 -5.344,-5.955l0.535,-5.878l-0,-0.611c-0,-0.407 -0.178,-0.611 -0.535,-0.611l0.535,-1.145l-0,-0.611c-0,-7.685 2.035,-27.762 6.107,-60.233c0.763,-11.299 1.145,-19.416 1.145,-24.353l0.611,-0c-0,-0.407 -0.204,-0.611 -0.611,-0.611c1.934,-22.699 3.283,-36.669 4.046,-41.911c-0.407,-0 -0.61,-0.179 -0.61,-0.535l0.61,0l-0.61,-1.221l-0,-7.1c10.993,-7.176 19.899,-11.35 26.719,-12.52c0,-0.916 3.359,-2.698 10.077,-5.344l0,0.611c0.356,-0 7.889,-2.774 22.597,-8.322c1.782,0 2.978,-0.178 3.588,-0.534c8.703,12.113 13.055,18.831 13.055,20.154c3.766,8.245 5.929,12.393 6.489,12.444c1.221,-2.138 4.402,-9.645 9.543,-22.521c0.61,0 1.984,-4.148 4.122,-12.444l1.222,-0.61c-0,0.407 0.203,0.61 0.61,0.61c0,-0.712 0.967,-1.323 2.901,-1.832Zm-85.579,-6.947c1.629,0.255 2.494,0.687 2.596,1.298c0.152,0.509 -2.087,2.367 -6.718,5.573c-8.5,10.891 -13.258,19.849 -14.276,26.872c-2.087,4.988 -3.944,13.182 -5.573,24.582c-1.069,0.204 -1.323,3.079 -0.764,8.627l-0.61,0.076c0.102,0.407 0.356,0.585 0.763,0.535l-0.076,2.977l0.305,1.756l-1.069,0.229c-0.814,0.152 -1.297,-0.178 -1.45,-0.993l-0.916,-4.657c-2.087,-11.044 1.094,-27.152 9.543,-48.324c6.412,-11.298 12.494,-17.482 18.245,-18.551Zm89.167,15.268l-0.61,1.222c0.458,-0 2.646,2.748 6.565,8.245l8.321,4.199c0.407,-0 0.611,-0.204 0.611,-0.611c4.428,0.814 8.779,2.214 13.054,4.199l0,-0.611c0,1.018 8.296,3.003 24.888,5.955c-4.784,-7.94 -10.128,-11.91 -16.032,-11.91l-36.797,-10.688Zm-92.602,22.598c1.17,2.443 3.155,4.809 5.954,7.099c1.985,0 6.133,-1.577 12.444,-4.733l0,0.535c19.544,-7.126 32.013,-11.477 37.408,-13.055l-0,-0.534c-4.123,-5.649 -6.693,-8.83 -7.711,-9.543c-8.245,3.563 -17.94,7.125 -29.086,10.688c-2.85,2.188 -7.405,4.173 -13.665,5.955c-3.563,1.781 -5.344,2.977 -5.344,3.588Zm73.593,13.054c1.985,4.53 3.563,9.263 4.733,14.2l0.611,-0c1.069,-0 3.461,-4.734 7.176,-14.2c3.563,-8.906 6.515,-15.854 8.856,-20.841c-1.781,-3.308 -4.148,-6.871 -7.1,-10.688c-1.12,1.12 -4.3,8.245 -9.543,21.376c0,1.221 -1.577,4.606 -4.733,10.153Zm4.733,27.865c-1.374,-0 -3.333,-4.352 -5.878,-13.055c0,-0.865 -4.351,-11.146 -13.054,-30.842l-1.222,0l-1.221,0.535l-0,-1.145l-1.145,-0c-9.467,2.697 -17.584,5.471 -24.353,8.321c-0.56,-0 -7.278,2.57 -20.155,7.71c0,2.647 -0.61,5.217 -1.832,7.711l0.611,-0c-0.305,0.814 -0.687,3.003 -1.145,6.565l0.534,0l-3.817,35.575l0,2.367c0,0.407 -0.203,0.611 -0.611,0.611l0.611,1.221c-0.203,7.024 -0.509,11.528 -0.916,13.513c0.407,-0 0.611,0.203 0.611,0.61c-0.407,0 -0.611,0.204 -0.611,0.611l0.611,0c-0.407,0.764 -0.611,1.349 -0.611,1.756c-0.407,12.724 -0.611,19.874 -0.611,21.452l-0.534,0l0.534,1.222l0,4.733c0,0.916 -0.178,1.705 -0.534,2.366c-0,0.407 0.178,0.611 0.534,0.611l-0.534,2.977l-0,7.1c-0,0.407 0.178,0.611 0.534,0.611l-0.534,1.221l-0,2.367c-0,5.497 -0.611,10.23 -1.832,14.2l0.61,1.221c0,4.224 -0.585,8.779 -1.755,13.665l0.534,1.145c-0.356,2.749 -0.534,4.937 -0.534,6.566c0.967,-0 1.959,0.381 2.977,1.145c0.356,-0 0.534,-0.178 0.534,-0.535l2.978,0.535l4.198,-0c2.749,-0 6.693,0.611 11.833,1.832l0,-0.611c3.359,0.815 9.492,1.807 18.399,2.978c0.763,-6.362 1.374,-9.543 1.832,-9.543c-0,-0.356 -0.204,-0.535 -0.611,-0.535c2.748,-22.546 4.123,-37 4.123,-43.362l0.61,0c0,-0.407 -0.203,-0.61 -0.61,-0.61c0.865,-12.113 2.061,-21.401 3.588,-27.865c2.85,1.985 6.209,8.296 10.077,18.933c1.069,0.407 2.646,3.002 4.733,7.787c1.272,0.101 4.453,6.616 9.543,19.543l1.145,0.611l0.611,-0c4.58,-12.113 7.354,-18.653 8.321,-19.62c-0,-0.356 0.585,-2.138 1.756,-5.344l-0.535,0c3.919,-7.227 5.879,-11.375 5.879,-12.444c1.221,0 3.409,-3.944 6.565,-11.833l3.588,-4.198c0.56,-3.156 2.723,-6.515 6.489,-10.078c0,1.324 0.204,2.316 0.611,2.978c-0,0.407 -0.204,0.992 -0.611,1.756c0.814,7.023 1.222,11.375 1.222,13.054l-1.222,29.086l0.611,0c-0.815,1.731 -1.222,4.912 -1.222,9.543l0,2.977l-0.534,1.145c0.356,0 0.534,0.204 0.534,0.611c-0.356,0 -0.534,0.204 -0.534,0.611c0.356,-0 0.534,0.178 0.534,0.534c-0.356,0 -0.534,0.204 -0.534,0.611l0.534,0l-1.145,6.565l0.611,0c-0.305,0.866 -0.713,3.436 -1.222,7.711l0.611,-0c-0.611,5.14 -1.221,7.71 -1.832,7.71c-0,0.408 0.204,0.611 0.611,0.611c-0.255,2.341 -0.636,3.512 -1.145,3.512l0.534,3.588c-0,1.018 -0.382,3.003 -1.145,5.955l0.611,-0l-0.611,1.145l-0,0.61l1.145,0c15.879,-9.211 27.559,-14.352 35.041,-15.421c7.787,-3.257 11.756,-5.242 11.909,-5.954l0,-0.611c0,-1.578 -0.203,-2.367 -0.611,-2.367l0.611,-5.878l0,-13.665l-0.611,-5.955l0.611,0l-0.611,-1.221c-0.407,-6.82 -0.61,-12.342 -0.61,-16.566c-0,-0.815 -0.204,-1.222 -0.611,-1.222l0.611,-2.977l-0,-7.711l0.61,-5.954l-0.61,-0l0.61,-1.145l0,-7.177c0,-0.865 -0.203,-1.654 -0.61,-2.366c0.407,-0.662 0.61,-1.451 0.61,-2.367l0,-2.366c0,-0.865 -0.203,-1.654 -0.61,-2.367c-0,-0.407 0.203,-0.611 0.61,-0.611l-0.61,-2.977c-0,-0.204 0.203,-2.774 0.61,-7.71l-0.61,-5.344l0.61,-0l-0.61,-1.146c-0,-0.407 0.203,-0.61 0.61,-0.61c0,-0.407 -0.203,-0.611 -0.61,-0.611c-0.407,-9.975 -0.611,-17.889 -0.611,-23.742l-0,-9.467c-0,-0.407 0.204,-0.61 0.611,-0.61l-0.611,-1.222l-0,-6.489c-11.757,-2.392 -27.763,-6.362 -48.019,-11.909l-1.832,-0c-1.781,0.967 -4.555,7.507 -8.321,19.62c-0.662,0.254 -3.232,5.98 -7.711,17.177c-1.781,3.257 -3.766,6.031 -5.955,8.321Zm-84.281,-38.018l0,1.221c-1.883,23.615 -2.926,37.547 -3.13,41.797c-0.203,4.25 -0.305,7.24 -0.305,8.97l-0,1.222c-0,0.356 -0.204,0.534 -0.611,0.534c0,0.407 0.204,0.611 0.611,0.611l-0.611,2.977l0,1.756c0,0.407 0.204,0.611 0.611,0.611l-0.611,1.221l0,2.978c0,4.733 -0.382,7.099 -1.145,7.099c-0,0.408 0.178,0.611 0.534,0.611l-1.145,7.711c0,0.407 0.204,0.61 0.611,0.61c-0.967,9.365 -1.603,14.404 -1.909,15.116c0,0.407 0.204,0.611 0.611,0.611c-0.814,4.071 -2.01,13.156 -3.588,27.254c-0.407,-0 -0.611,0.61 -0.611,1.832l0,7.1l-0.61,5.954l0.61,0l-0.61,1.146l-0,1.221c0.814,1.985 4.784,7.329 11.909,16.032l0.611,-0c0.356,-4.683 0.534,-8.042 0.534,-10.077l0,-0.611c0,-0.407 0.204,-0.611 0.611,-0.611c-0,-0.407 -0.204,-0.611 -0.611,-0.611l0.611,-3.511c-0,-7.38 0.407,-13.513 1.221,-18.399c-0.407,-0.712 -0.611,-1.526 -0.611,-2.443c0.408,-0.763 0.611,-1.348 0.611,-1.755c0,-0.408 -0.203,-0.611 -0.611,-0.611c0.815,-3.817 1.222,-9.161 1.222,-16.032l-0,-11.833l0.534,-1.221l-0.534,-0c0.865,-9.976 1.73,-19.467 2.596,-28.476c-0,-0.407 -0.179,-0.611 -0.535,-0.611l3.817,-39.774l-0.534,0c0.763,-1.577 1.145,-2.951 1.145,-4.122l-0.611,-0l0.611,-1.221l-0,-1.756l-8.932,-11.91c0,-0.407 -0.178,-0.61 -0.534,-0.61l-1.222,-0Zm106.268,90.846c-0,0.815 -0.204,1.222 -0.611,1.222c0.56,1.628 1.552,2.824 2.977,3.588l0.611,-0c-1.374,-3.207 -2.366,-4.81 -2.977,-4.81Zm-3.512,7.176l0,1.145l4.123,7.711c0.916,1.221 1.501,1.832 1.755,1.832c0,-1.221 0.204,-1.832 0.611,-1.832c-0.509,-2.799 -2.672,-5.751 -6.489,-8.856Zm-3.588,8.322l-0.611,4.122c1.324,1.374 2.52,3.563 3.588,6.565c3.359,3.156 5.344,4.734 5.955,4.734c0,-0.662 0.178,-3.054 0.534,-7.176c-2.544,-0.713 -5.318,-3.461 -8.321,-8.245l-1.145,-0Zm-1.756,13.054l-0.611,1.145l0.611,0c-0.407,0.865 -1.018,3.843 -1.832,8.932c0.407,0.764 0.611,1.349 0.611,1.756c-0.407,0 -0.611,0.204 -0.611,0.611l0.611,-0c-0.713,1.781 -1.298,6.336 -1.756,13.665l0.534,1.145c-0.763,4.122 -1.145,7.685 -1.145,10.688c3.105,4.682 6.464,8.448 10.077,11.298c0.815,-9.771 1.603,-16.897 2.367,-21.375l-0.611,-0c0.305,-0.815 0.713,-2.978 1.222,-6.489l-0.611,-0l0.611,-1.222l-0,-1.756c-0,-2.595 0.407,-5.369 1.221,-8.321c0,-1.781 -1.603,-2.977 -4.81,-3.588c0,-1.17 -1.959,-3.334 -5.878,-6.489Zm-106.802,44.584c0.305,4.173 4.25,10.102 11.833,17.787c8.041,5.548 15.777,8.321 23.208,8.321l-0,-0.61l1.145,0.61c2.596,-0.407 7.354,-2.977 14.276,-7.71l1.756,-0c-5.446,8.296 -11.375,12.444 -17.788,12.444l-1.756,-0c-7.939,-0 -17.049,-3.741 -27.33,-11.223c0,-0.814 -0.789,-1.806 -2.367,-2.977c-4.376,-5.955 -6.565,-9.924 -6.565,-11.909l0,-2.978c0,-1.17 1.196,-1.755 3.588,-1.755Zm86.419,6.412l1.756,0c-0.407,0.764 -0.611,1.349 -0.611,1.756c0,8.398 10.891,15.93 32.674,22.597c2.8,1.171 8.932,2.341 18.399,3.512c5.649,0 10.993,-1.959 16.031,-5.878l0.611,-0c0,2.392 -2.392,5.165 -7.176,8.321c0,-0.407 -0.178,-0.611 -0.534,-0.611c-0,1.323 -3.181,2.112 -9.543,2.367l-1.756,-0c-13.487,-0 -28.933,-5.141 -46.339,-15.421c-3.919,-4.784 -5.879,-8.347 -5.879,-10.688l0,-1.832c0,-2.087 0.789,-3.461 2.367,-4.123Zm-83.518,20.231l2.367,-0c10.229,5.955 24.073,10.306 41.53,13.054l1.221,-0.61l4.123,0.61c6.87,0 12.214,-3.155 16.031,-9.466l0.611,-0c0,5.497 -3.181,9.441 -9.543,11.833c-0.407,0.56 -2.977,1.349 -7.71,2.366l-1.145,-0.61l-1.833,-0l-1.145,0.61c0,-0.407 -0.203,-0.61 -0.61,-0.61l-0,0.61c-15.879,-2.341 -29.723,-6.285 -41.53,-11.832l-4.199,-4.734l1.832,-1.221Zm156.119,11.298l1.145,0c0,0.764 0.204,1.146 0.611,1.146c-3.919,8.346 -10.255,12.52 -19.009,12.52l-4.734,-0c-0.407,-0 -0.61,0.178 -0.61,0.534c-10.026,-1.578 -16.541,-2.952 -19.544,-4.122l0,0.61c-3.715,-0.814 -6.896,-1.806 -9.542,-2.977l-0,0.611c8.397,6.972 15.726,11.705 21.986,14.199l-0,0.611c-0.153,0.814 -1.145,1.603 -2.977,2.367c-1.629,-0 -6.362,-2.571 -14.2,-7.711c0,-0.611 -1.196,-1.807 -3.588,-3.588l-5.344,-5.878c0.764,-0.967 1.145,-1.782 1.145,-2.443l-1.756,-3.512c1.171,-0.407 1.756,-0.814 1.756,-1.221c1.222,0.407 1.832,0.814 1.832,1.221l1.146,-0.611c11.451,4.733 22.342,7.1 32.674,7.1l1.756,0c8.448,0 13.792,-2.163 16.031,-6.489c0.815,-0.967 1.222,-1.756 1.222,-2.367Z" style="fill-rule:nonzero;"/><path d="M586.248,97.685c1.985,0.509 2.978,1.095 2.978,1.756c-6.769,5.09 -10.917,9.848 -12.444,14.276c-6.565,10.484 -13.512,27.687 -20.841,51.607l0.61,0c-0.763,1.323 -2.341,8.067 -4.733,20.231l-0.61,-0c-0,0.356 0.203,0.534 0.61,0.534l-1.756,7.176l0,1.756l-1.221,-0l-0,-2.977c-0,-1.629 -0.204,-3.207 -0.611,-4.734c0,-10.229 4.174,-27.254 12.52,-51.072c9.67,-25.702 18.17,-38.553 25.498,-38.553Zm32.369,12.826c2.392,0.254 3.588,0.636 3.588,1.145l1.222,-0.611c9.263,1.985 16.566,4.759 21.91,8.321c6.463,4.581 10.84,9.747 13.131,15.498c2.951,-0 4.911,9.873 5.878,29.62c-0,4.377 -3.944,20.409 -11.833,48.096l-6.871,16.337l-6.794,0.305l-12.444,1.222c-0.712,-0.408 -1.527,-0.611 -2.443,-0.611c-0.763,0.407 -1.349,0.611 -1.756,0.611l0,-0.611l-1.145,0.611l-1.832,-0c-2.596,-0 -4.581,-1.985 -5.955,-5.955l-1.145,-0l-1.221,10.077c0.56,0.407 4.733,0.992 12.52,1.756l-0,-0.535l1.145,0.535l1.832,-0c0.356,-0 0.534,-0.178 0.534,-0.535l1.222,0.535l1.756,-0c0.407,-0 0.611,-0.178 0.611,-0.535l1.221,0.535l3.512,-0.535c2.544,2.901 5.903,7.635 10.077,14.2c4.377,3.054 6.565,7.609 6.565,13.665c0,6.973 -1.985,15.09 -5.954,24.353c-0,0.916 0.203,1.705 0.61,2.367c-3.562,8.601 -5.344,13.563 -5.344,14.886c-0.967,1.222 -2.544,4.174 -4.733,8.856c-1.679,3.919 -4.86,8.27 -9.543,13.054c-6.209,3.716 -11.349,6.49 -15.421,8.322l-3.588,0.61c-8.295,-0.916 -12.443,-1.908 -12.443,-2.977l-1.145,0.611l-0.611,-0c-14.098,-11.706 -23.793,-19.238 -29.086,-22.597c-0,-0.967 -1.4,-2.545 -4.199,-4.733c-2.494,-3.665 -5.446,-9.39 -8.856,-17.177c-1.425,-0 -2.824,-10.103 -4.199,-30.308c0.815,-4.53 1.222,-8.881 1.222,-13.054c-0,-0.408 -0.204,-0.993 -0.611,-1.756c0.407,-0.713 0.611,-1.527 0.611,-2.443l-0,-6.489c-0,-0.407 -0.204,-0.611 -0.611,-0.611l1.222,-4.122l-0.611,-0l4.122,-28.552l-0.61,-0c1.73,-8.856 3.333,-14.582 4.809,-17.177l-0.611,-0l12.444,-33.285c1.018,-0.204 2.214,-3.359 3.588,-9.466c1.12,-0.357 2.494,-2.545 4.123,-6.566l0.61,0l-0.61,-1.145l-0,-0.611c1.73,0 4.122,-2.57 7.176,-7.71c0.814,-0 1.806,-1.578 2.977,-4.733c1.171,-0 2.138,-1.196 2.901,-3.589l1.222,0.611c5.954,-3.155 11.502,-5.344 16.642,-6.565l0,0.611c1.578,-0.815 2.952,-1.222 4.122,-1.222l0,0.611c0.662,-0.306 3.029,-0.687 7.1,-1.145Zm-5.878,7.71l-0,-0.611c-3.664,1.171 -6.057,1.756 -7.176,1.756l-0,-0.534c-7.125,2.239 -10.688,4.199 -10.688,5.878c-6.515,5.293 -12.444,13.029 -17.788,23.208c-9.11,22.852 -15.039,39.469 -17.787,49.851c-0.713,2.291 -1.705,7.838 -2.978,16.643l0.611,1.145c-0.814,1.323 -1.221,2.519 -1.221,3.588l-0,4.122l0.61,1.222l-0.61,-0c-0,0.407 0.203,0.611 0.61,0.611c-1.17,7.176 -1.755,13.309 -1.755,18.398l-0,6.489c-0,0.916 -0.204,1.705 -0.611,2.367c-0,0.407 0.203,0.61 0.611,0.61l-0.611,2.978l-0,1.221l0.611,1.145l-0.611,0c-0,0.407 0.203,0.611 0.611,0.611l-0.611,2.367c0.865,11.858 1.654,17.787 2.366,17.787c0,0.407 -0.203,0.611 -0.61,0.611c-0,5.446 3.969,13.767 11.909,24.964c0.865,-0 2.239,1.196 4.122,3.588c3.97,2.494 8.118,3.868 12.444,4.122c7.024,0 12.978,-2.774 17.864,-8.321c10.535,-10.433 17.05,-20.536 19.544,-30.308c0.712,0 3.104,-8.703 7.176,-26.109c-0.407,-0.661 -0.611,-1.45 -0.611,-2.366l-0,-1.756c-0.407,-0 -0.992,-0.204 -1.756,-0.611l0,0.611c-0.407,-0 -0.611,-0.204 -0.611,-0.611c-2.188,0.407 -3.766,0.611 -4.733,0.611c-2.595,-0.814 -4.377,-1.221 -5.344,-1.221l-6.565,-0c-1.476,0.865 -3.665,6.616 -6.566,17.253c-4.631,6.311 -8.779,9.466 -12.443,9.466c-0,-0.407 -2.163,-2.57 -6.489,-6.489l-0,-0.611l0.534,0c-0.763,-1.73 -1.145,-4.911 -1.145,-9.542l0,-6.489c1.578,-14.607 3.563,-27.662 5.955,-39.164c3.155,-9.568 4.733,-15.701 4.733,-18.398c2.901,-8.041 5.267,-13.385 7.1,-16.032c3.155,-0.712 4.733,-1.527 4.733,-2.443l-0,-0.534l4.809,-0c2.749,1.17 4.123,2.163 4.123,2.977l0.611,0c-0,-0.407 0.203,-0.611 0.61,-0.611c1.527,1.782 2.316,3.563 2.367,5.344c-0.407,0.764 -0.611,1.349 -0.611,1.756l0.611,0c-2.392,13.131 -4.377,22.038 -5.955,26.72l0,1.221c1.171,0 1.756,0.178 1.756,0.535c1.323,-0.764 2.316,-1.145 2.977,-1.145l0,0.61l1.222,-0.61l3.512,-0c2.799,-0 4.198,-0.408 4.198,-1.222l1.145,0.611c3.665,-0 8.424,-12.673 14.276,-38.018c0,-1.171 0.204,-2.545 0.611,-4.123l-0.611,0l2.367,-11.909l-0.611,-0l0.611,-1.145c-0,-0.407 -0.204,-0.611 -0.611,-0.611l0.611,-2.977l-0,-4.123l-0.611,-1.221l0.611,-0c-1.68,-7.736 -4.046,-13.284 -7.1,-16.643c-0.611,-1.679 -3.181,-3.257 -7.71,-4.733c-0.458,-0.611 -4.021,-1.603 -10.688,-2.977l-1.832,-0c-1.069,-0 -2.24,0.407 -3.512,1.221Zm-57.256,-7.405c1.018,0.153 1.781,1.094 2.29,2.825c-3.563,10.484 -6.565,25.88 -9.008,46.186l0.61,0c-0.814,5.802 -1.552,9.925 -2.214,12.368l0.458,1.145l0,5.038c0,3.207 -0.356,5.65 -1.068,7.329c0.407,0.611 0.61,1.349 0.61,2.214l-0.61,2.825c0.712,0.102 1.068,0.483 1.068,1.145c-1.119,-0 -1.679,0.382 -1.679,1.145l0.611,0c-0,-0.407 0.203,-0.611 0.61,-0.611c0,0.764 0.153,1.145 0.458,1.145l-0.458,1.146l0,1.679c0,0.356 0.153,0.535 0.458,0.535l-0.458,1.145l0,5.649l-0.61,-0c-1.476,-7.431 -2.418,-13.233 -2.825,-17.406l0.611,0l-0.611,-1.221l0,-2.214l0.611,-2.825l-0.611,0l0.611,-1.069l-0,-0.611c-0,-0.356 -0.204,-0.534 -0.611,-0.534l0.611,-1.145l-0,-7.329c0.712,-14.556 1.807,-24.302 3.282,-29.239c0,-0.407 -0.152,-0.61 -0.458,-0.61c2.952,-19.137 5.726,-28.705 8.322,-28.705Zm91.075,18.093l0,1.145c1.934,5.751 3.512,9.314 4.733,10.688c-0.763,0.916 -1.552,4.479 -2.366,10.688l0.611,1.221l-1.756,11.299c-0,2.29 2.748,6.031 8.245,11.222c1.628,-6.616 2.443,-10.764 2.443,-12.444c-0,-10.687 -2.596,-20.586 -7.787,-29.696c-0,-0.764 -1.171,-1.934 -3.512,-3.512l0,-0.611l-0.611,0Zm0,43.897c-1.985,6.565 -2.977,10.331 -2.977,11.298l7.71,8.321c0,-0.916 0.204,-1.705 0.611,-2.366l-0.611,-0c1.578,-4.275 2.367,-6.846 2.367,-7.711c0,-1.832 -2.163,-5.013 -6.489,-9.542l-0.611,-0Zm-43.973,10.153l-1.145,1.756l0,2.366c0.662,0 3.029,1.782 7.1,5.344c0.407,0 0.611,-0.203 0.611,-0.61l0.611,-4.123c-4.479,-3.155 -6.871,-4.733 -7.177,-4.733Zm39.24,6.489c0,1.476 -0.407,2.672 -1.221,3.588l-0,0.611c-0,3.054 1.985,6.794 5.954,11.222l1.222,0.611c1.17,-3.766 1.756,-6.133 1.756,-7.1l-0,-0.611c-4.53,-5.496 -7.1,-8.27 -7.711,-8.321Zm-42.751,2.367l-0,0.61c-0.407,3.461 -0.611,5.446 -0.611,5.955c0.916,0 1.705,0.992 2.367,2.977c1.476,1.985 2.468,2.978 2.977,2.978c0.407,-0 0.611,0.381 0.611,1.145l0.61,-0c1.171,-2.749 1.96,-5.115 2.367,-7.1l-7.711,-6.565l-0.61,-0Zm38.018,8.932l-1.222,5.344c3.054,6.158 5.421,9.72 7.1,10.687c1.985,-1.781 2.978,-3.969 2.978,-6.565c-0.458,-0 -3.41,-3.155 -8.856,-9.466Zm-40.996,4.122c0,0.916 -0.203,1.705 -0.61,2.367l0.61,-0c-1.17,3.155 -1.755,5.14 -1.755,5.954c5.343,5.65 8.906,9.009 10.687,10.077l1.146,0l-0,-4.122c0.152,-0.814 0.559,-1.222 1.221,-1.222l-4.81,-7.71c0,-0.356 -1.959,-2.138 -5.878,-5.344l-0.611,0Zm21.987,6.565l-0,0.611c-0,2.24 2.57,6.184 7.71,11.833l1.145,0l0,-0.611c-0.661,-2.392 -3.613,-6.336 -8.855,-11.833Zm7.1,0l-0,0.611c1.17,1.273 1.755,2.265 1.755,2.978l1.222,-0c-0.56,-1.68 -1.552,-2.876 -2.977,-3.589Zm6.565,0l0,1.146l5.344,7.176l-0,-0.611c-1.629,-3.308 -3.41,-5.878 -5.344,-7.711Zm-2.443,5.955c1.069,2.239 2.85,4.402 5.344,6.489l-0,-1.145c-0.458,0 -2.036,-1.781 -4.733,-5.344l-0.611,0Zm-37.331,10.077c1.323,3.359 3.486,6.311 6.489,8.856l0.611,-0c-0,-0.764 2.163,-2.341 6.489,-4.733l-0,-1.145c-1.12,-0 -5.064,-3.385 -11.833,-10.154c-1.171,0 -1.756,2.392 -1.756,7.176Zm69.547,5.115c1.069,0 1.858,2.57 2.367,7.711l-0.611,-0c0.407,0.407 0.814,3.384 1.222,8.932c-0,7.685 -1.782,22.928 -5.344,45.728c-1.833,1.018 -4.225,5.751 -7.176,14.2l-0.611,-0l-0,-1.756c2.799,-8.703 4.784,-19.187 5.954,-31.453c0.408,0 0.611,-0.203 0.611,-0.611l-0.611,0l4.199,-26.108l-0.61,-0l0.61,-1.222l-0.61,-4.122c0.763,-0 1.145,-0.407 1.145,-1.222l-0,-0.611c-0,-0.356 -0.178,-0.534 -0.535,-0.534l0.535,-1.221c-0.357,-0.764 -0.535,-1.349 -0.535,-1.756l0.535,-0l-0.535,-1.222l0.535,-1.145c-0.357,-0.763 -0.535,-1.374 -0.535,-1.832l0.535,-0l-0.535,-1.145l0,-0.611Zm-70.768,3.206c-0,1.578 -0.408,4.148 -1.222,7.711l0.611,-0l-0.611,1.145l0,0.611c1.323,1.832 3.715,3.817 7.176,5.954c1.171,-3.562 1.756,-6.539 1.756,-8.931c-0.611,-0 -3.181,-2.164 -7.71,-6.49Zm45.117,11.833c-3.562,11.706 -6.132,21.223 -7.71,28.552c-0.407,0 -0.611,0.178 -0.611,0.535c0.407,-0 0.611,0.203 0.611,0.61c-3.156,3.97 -4.733,7.329 -4.733,10.077c7.838,7.126 12.189,10.688 13.054,10.688c1.476,-1.934 4.046,-10.051 7.711,-24.353l-0.611,0c0.814,-1.73 1.4,-4.682 1.756,-8.855c-0.356,-0 -0.535,-0.204 -0.535,-0.611l0.535,-0l-0.535,-1.222l0,-2.366c0,-0.356 0.179,-0.535 0.535,-0.535l-0.535,-1.221l0,-2.977c-1.017,-0 -3.995,-2.774 -8.932,-8.322Zm-46.339,4.199l0,3.512c1.578,3.563 2.57,5.344 2.977,5.344c1.324,-0.967 2.316,-2.545 2.978,-4.733l-5.955,-4.123Zm79.624,8.856l1.146,-0l1.221,11.298c-0.407,0 -0.611,0.204 -0.611,0.611l0.611,0c-1.629,12.368 -8.754,28.399 -21.376,48.095c-7.023,9.467 -11.985,14.2 -14.886,14.2l-2.978,-0.534l0,-1.222c7.024,-6.463 10.994,-10.611 11.91,-12.444c2.697,0 7.456,-7.532 14.276,-22.597c1.323,0 3.689,-5.522 7.099,-16.566c1.578,-4.071 2.367,-6.26 2.367,-6.565l-0.611,-1.222c0.815,-1.425 1.222,-3.002 1.222,-4.733l-0,-5.344l0.61,-2.977Zm-49.316,30.918c-1.985,3.41 -2.978,5.573 -2.978,6.489c0,0.916 2.367,3.105 7.1,6.566c0,1.272 2.392,3.257 7.176,5.954l2.367,-4.809l-0,-1.145c-0,-3.512 -2.189,-5.879 -6.566,-7.1c0,-0.407 -2.163,-2.392 -6.489,-5.955l-0.61,0Zm-74.892,15.956c0.764,-0 2.952,2.977 6.566,8.932c1.985,1.628 2.977,3.206 2.977,4.733l1.145,-0.611c12.215,11.553 20.155,17.889 23.819,19.009c2.341,1.629 3.512,2.825 3.512,3.588c0.407,0 0.61,-0.203 0.61,-0.611c7.024,3.97 10.994,5.955 11.91,5.955c-0,0.56 -0.611,1.145 -1.833,1.756c0,-0.407 -0.203,-0.611 -0.61,-0.611l-0,0.611c-5.497,-0.967 -13.004,-4.733 -22.521,-11.299c-17.813,-13.843 -26.72,-23.131 -26.72,-27.864l0,-2.367c0.102,-0.814 0.484,-1.221 1.145,-1.221Zm65.425,-2.901l0,0.61c2.443,2.545 5.802,5.319 10.077,8.322c1.171,0.967 1.756,1.756 1.756,2.366l2.978,0l-0,-0.61c-7.94,-7.126 -11.91,-11.274 -11.91,-12.444l-1.145,-0c-0.56,-0 -1.145,0.585 -1.756,1.756Zm-7.787,8.932c1.578,2.188 3.97,4.148 7.177,5.878l0.61,-0c-3.46,-3.919 -6.056,-5.878 -7.787,-5.878Zm8.932,-0l0,0.534c1.375,2.392 2.774,3.588 4.199,3.588c0,-0.56 -1.399,-1.934 -4.199,-4.122Zm-31.452,2.366l-0,0.535c0.101,0.661 2.29,2.264 6.565,4.809c0,0.662 1.578,2.036 4.733,4.123c0,1.018 4.148,2.392 12.444,4.122l-0,-0.534c-9.365,-7.94 -15.701,-11.91 -19.009,-11.91c-1.731,0 -3.308,-0.381 -4.733,-1.145Zm20.154,2.367l-0,0.611c2.087,2.443 5.471,5.394 10.153,8.855l1.145,-1.756c-7.227,-5.14 -10.993,-7.71 -11.298,-7.71Zm-52.981,11.909l1.221,0c7.227,5.497 15.523,10.052 24.888,13.665l13.13,5.955c10.536,2.392 16.058,3.588 16.567,3.588l-0,1.145c-0,0.56 -1.171,1.171 -3.512,1.832l-1.222,-0.61l-1.756,-0c-8.601,-0 -22.469,-4.759 -41.606,-14.276l-9.466,-6.489l-0.611,-2.978l2.367,-1.832Z" style="fill-rule:nonzero;"/><path d="M773.515,239.07c-0.967,0.713 -2.087,1.476 -3.359,2.29l-3.36,2.138c-1.221,0.712 -2.901,1.807 -5.038,3.283l-2.519,1.756l-2.596,1.679c0,-1.018 0.025,-1.832 0.076,-2.443c0.967,-0.662 2.087,-1.578 3.359,-2.748l3.13,-2.978c0.509,-0.508 1.222,-1.068 2.138,-1.679l1.145,-0.763l1.069,-0.764c0.509,-0.407 1.145,-0.967 1.908,-1.679l0.917,-0.916l0.992,-0.764c0.407,-0.356 0.611,-0.763 0.611,-1.221l0.229,-0c0.051,-0.051 0.152,-0.102 0.305,-0.153c0.153,-0.102 0.305,-0.255 0.458,-0.458l0.535,-0.535l-0,5.955Zm-0,2.672c-0.255,0.255 -0.433,0.535 -0.535,0.84c-0.203,0.611 -0.712,1.425 -1.527,2.443l-1.908,2.29l-0.229,0.229l-2.978,1.909l-2.901,1.985c-0.814,0.559 -2.01,1.501 -3.588,2.824c-0.101,0.102 -0.28,0.28 -0.534,0.535l-0.382,0.305l-0.381,0.382c-0.713,0.661 -1.298,1.17 -1.756,1.526l-0,-4.656l0.229,-0.077c1.374,-0.865 3.359,-2.163 5.954,-3.893l2.978,-2.061l2.977,-1.909c1.883,-1.171 3.41,-2.163 4.581,-2.977l-0,0.305Zm-13.895,16.643c-0.152,0.101 -0.356,0.305 -0.61,0.61l-0.687,0.764c-0.56,0.61 -1.069,1.119 -1.527,1.527l-0,-1.833c0.916,-0.509 2.035,-1.399 3.359,-2.672l1.527,-1.45c0.61,-0.56 1.119,-1.018 1.526,-1.374l1.222,-0.916l-2.443,2.672l-2.367,2.672Zm-4.886,-13.971l-0.305,0.076l-0.153,0.077l-2.442,-1.222l3.588,-3.435l3.664,-3.359l4.657,-4.657c2.036,-1.883 3.868,-3.181 5.496,-3.893l1.146,0.839l1.068,0.916c-0.509,0.357 -0.89,0.713 -1.145,1.069c-0.356,0.153 -0.661,0.357 -0.916,0.611l-0.458,0.458c-0.153,0.204 -0.28,0.305 -0.382,0.305c-0.916,0.255 -1.374,0.866 -1.374,1.833l-1.145,1.068l-1.221,0.916l-1.833,1.222c-0.763,0.509 -1.374,0.967 -1.832,1.374l-1.527,1.451l-1.526,1.526c-1.273,1.273 -2.367,2.214 -3.283,2.825l-0.077,0Zm-1.755,17.406c-0.916,0.204 -1.425,0.763 -1.527,1.679c-4.988,1.731 -10.917,3.69 -17.788,5.879l-17.864,5.496c-1.679,0.509 -3.562,1.12 -5.649,1.833l-5.649,1.984c-4.632,1.68 -8.398,2.901 -11.299,3.665c-2.036,0.56 -3.079,0.84 -3.13,0.84c-0.153,-0.051 -0.305,-1.247 -0.458,-3.588c0,-0.357 -0.051,-0.815 -0.153,-1.375l-0.229,-1.526c-0.203,-1.375 -0.305,-2.418 -0.305,-3.13l1.221,-0.458l1.222,-0.611c1.018,-0.458 1.756,-0.764 2.214,-0.916l7.939,-2.367c3.054,-0.916 5.701,-1.73 7.94,-2.443c1.527,-0.509 3.766,-1.17 6.718,-1.985l7.176,-1.985c5.751,-1.73 10.052,-3.689 12.902,-5.878l0.152,-0.076l0.077,0.076c1.12,0.56 1.985,0.28 2.595,-0.84c0.662,-1.068 0.433,-1.908 -0.687,-2.519c-2.29,-1.221 -5.013,-2.596 -8.168,-4.122l-0.077,-0.153l-0.229,-0.153c-0.407,-0.356 -0.865,-0.534 -1.374,-0.534c-12.113,-5.853 -24.607,-11.019 -37.483,-15.498l-0.077,-1.145l-0.153,-1.221c-0.152,-0.967 -0.229,-1.705 -0.229,-2.214c0.051,-1.221 0.026,-2.672 -0.076,-4.351l-0.382,-4.276c9.263,6.26 18.602,11.172 28.018,14.734c2.188,0.815 5.064,1.858 8.626,3.13l8.627,3.054c6.718,2.494 12.367,4.835 16.948,7.023c0.153,0.102 0.331,0.204 0.534,0.306l0,2.29l0.077,2.367l-0,9.008Zm-49.088,-5.115c-0.865,1.171 -1.985,2.825 -3.359,4.962l-1.603,2.52l-1.68,2.519l-1.069,0.305c-0.509,0.153 -2.086,0.662 -4.733,1.527l5.802,-6.26c2.341,-2.392 4.555,-4.25 6.642,-5.573Zm4.122,-1.985c0.866,-0.305 1.909,-0.509 3.13,-0.611l-0.458,0.764l-0.61,0.687c-0.509,0.611 -0.866,1.12 -1.069,1.527c-0.255,0.458 -0.662,1.069 -1.222,1.832l-1.221,1.756l-2.138,3.664l-4.275,1.374l1.832,-2.824l1.909,-2.825c1.425,-2.137 2.799,-3.919 4.122,-5.344Zm4.963,-0.84l3.817,-0.152c-0.56,0.814 -1.222,1.73 -1.985,2.748l-1.069,1.298l-1.069,1.374c-0.661,0.814 -1.348,1.883 -2.061,3.206l-1.68,0.458l-1.603,0.535c0.713,-1.273 1.324,-2.24 1.832,-2.901l1.68,-2.748l0.534,-0.764l0.611,-0.687c0.458,-0.56 0.789,-1.043 0.993,-1.45c0.152,-0.306 0.152,-0.611 -0,-0.917Zm10.993,-1.221l-0.077,-0.153c1.324,-0.203 2.469,-0.254 3.436,-0.152l2.595,1.221l2.52,1.298c-1.731,1.018 -3.919,2.01 -6.566,2.977l0.687,-1.145c0.255,-0.509 0.484,-0.763 0.687,-0.763c0.611,-0.051 0.917,-0.407 0.917,-1.069c-0,-0.662 -0.306,-0.942 -0.917,-0.84c-0.916,0.102 -1.755,0.814 -2.519,2.138c-0.203,0.356 -0.509,0.814 -0.916,1.374l-0.992,1.374l-3.054,0.916c0.611,-0.814 1.094,-1.578 1.45,-2.29c0.459,-0.916 0.967,-1.731 1.527,-2.443c0.102,-0.102 0.229,-0.28 0.382,-0.534c0.204,-0.102 0.356,-0.23 0.458,-0.382c0.305,-0.458 0.433,-0.942 0.382,-1.451l-0,-0.076Zm-5.115,0.84l2.901,-0.611l-0.153,0.305c-0.152,0.306 -0.432,0.713 -0.84,1.222l-0.839,1.221c-0.916,1.832 -2.036,3.512 -3.359,5.039l-3.13,0.84c0.559,-0.916 1.119,-1.68 1.679,-2.291c1.323,-1.526 2.545,-3.206 3.665,-5.038c0.152,-0.204 0.178,-0.433 0.076,-0.687Zm-17.024,-45.958l1.679,-1.298c1.323,-1.018 2.443,-1.832 3.359,-2.443l2.825,-1.603l0.153,-0.153c0.458,0.255 1.068,0.484 1.832,0.687l-1.832,1.298l-1.909,1.298c-1.578,1.018 -2.799,1.883 -3.664,2.596c-0.611,0.458 -1.349,1.119 -2.214,1.985l-1.145,1.145l-1.222,1.069c-1.934,1.781 -3.613,2.901 -5.038,3.359c-0.509,0.152 -0.738,0.509 -0.688,1.068c0.102,0.56 0.408,0.84 0.917,0.84l0.229,0c0.254,0 0.458,-0.076 0.61,-0.229c1.324,-0.56 2.825,-1.603 4.505,-3.13l2.061,-1.985c0.814,-0.763 1.501,-1.349 2.061,-1.756c1.069,-0.865 2.672,-2.035 4.809,-3.511l2.443,-1.68l2.443,-1.756l4.657,1.069l5.726,2.138c-0.407,-0.153 -0.764,-0.102 -1.069,0.152c-1.272,1.222 -2.952,2.52 -5.039,3.894l-2.824,1.756l-2.825,1.679c-4.58,2.901 -7.71,5.777 -9.39,8.627l-0.076,0.305c-1.273,-0.611 -2.698,-1.374 -4.275,-2.29c1.018,-1.171 2.57,-2.469 4.657,-3.894l2.595,-1.755c1.018,-0.662 1.832,-1.222 2.443,-1.68l2.29,-1.832l2.291,-1.756c1.781,-1.323 3.41,-2.367 4.885,-3.13c0.255,-0.102 0.408,-0.28 0.459,-0.534c0.05,-0.255 0.025,-0.484 -0.077,-0.688c-0.153,-0.254 -0.331,-0.407 -0.534,-0.458c-0.255,-0.101 -0.535,-0.101 -0.84,0c-1.527,0.815 -3.308,2.011 -5.344,3.588l-2.596,1.985c-0.967,0.764 -1.832,1.4 -2.595,1.909l-2.367,1.679l-2.519,1.68c-1.883,1.374 -3.359,2.697 -4.428,3.97c-2.29,-1.374 -4.453,-2.749 -6.489,-4.123l4.733,-3.359c1.985,-1.374 3.563,-2.519 4.734,-3.435l1.603,-1.298Zm26.338,0.458c-1.273,1.12 -2.876,2.443 -4.81,3.97l-2.519,1.908l-2.52,1.833c-2.086,1.679 -3.766,3.053 -5.038,4.122c-0.305,0.305 -0.687,0.687 -1.145,1.145l-1.145,1.222c-0.967,1.018 -1.833,1.679 -2.596,1.985c-0.509,0.152 -0.738,0.508 -0.687,1.068l-2.901,-1.45l0.153,-0.153c0.967,-1.628 2.494,-3.232 4.58,-4.809l1.374,-0.993l1.375,-0.916l5.191,-3.588l2.519,-1.68c2.036,-1.323 3.614,-2.519 4.733,-3.588c0.255,-0.254 0.331,-0.534 0.229,-0.839c-0.051,-0.306 -0.229,-0.535 -0.534,-0.687l3.741,1.45Zm6.718,2.748l-0.077,0c-3.308,1.782 -6.947,4.454 -10.917,8.016l-2.519,2.291l-2.519,2.366c-2.189,2.036 -3.868,3.563 -5.039,4.581l-4.657,-2.138c0.815,-0.356 1.833,-1.12 3.054,-2.29c1.374,-1.374 3.334,-3.079 5.878,-5.115l5.802,-4.428c2.342,-1.832 4.225,-3.384 5.65,-4.657c0.203,-0.203 0.305,-0.432 0.305,-0.687l5.039,2.061Zm5.496,2.367l2.061,0.84l1.985,0.916l4.199,1.832c3.308,1.425 6.133,2.748 8.474,3.97l-0.305,0.229c-2.799,2.748 -6.311,5.751 -10.535,9.008l-2.367,1.68l-2.443,1.756c-1.934,1.374 -3.41,2.621 -4.428,3.74l-5.725,-2.137l1.45,-1.069c0.56,-0.356 0.942,-0.662 1.145,-0.916c0.611,-0.611 1.4,-1.374 2.367,-2.29l2.443,-2.214l5.191,-5.039l1.374,-1.145l1.451,-1.145c1.272,-0.916 2.188,-1.731 2.748,-2.443c0.203,-0.204 0.28,-0.458 0.229,-0.764c-0,-0.203 -0.102,-0.407 -0.305,-0.61c-0.204,-0.204 -0.408,-0.306 -0.611,-0.306c-0.255,0 -0.484,0.102 -0.687,0.306c-0.56,0.712 -1.451,1.527 -2.672,2.443l-1.527,1.145c-0.56,0.458 -1.018,0.84 -1.374,1.145l-1.68,1.603l-1.603,1.68c-1.374,1.323 -2.494,2.366 -3.359,3.13l-1.45,1.297l-1.375,1.451c-1.17,1.12 -2.163,1.934 -2.977,2.443l-0.84,0.458l-5.42,-2.061c0.916,-0.967 2.138,-2.087 3.665,-3.359l1.908,-1.603l1.756,-1.527c2.036,-1.68 3.766,-3.054 5.191,-4.123c1.985,-1.476 3.843,-2.646 5.573,-3.512c0.56,-0.305 0.662,-0.737 0.305,-1.297c-0.305,-0.56 -0.738,-0.687 -1.297,-0.382c-2.952,1.527 -6.668,4.199 -11.146,8.016l-1.985,1.603l-1.985,1.756c-1.578,1.374 -2.876,2.596 -3.893,3.664l-6.108,-2.519l2.367,-2.138l2.366,-2.213c2.087,-1.934 3.69,-3.41 4.81,-4.428c3.817,-3.308 7.303,-5.828 10.459,-7.558c0.458,-0.255 0.585,-0.636 0.381,-1.145l4.199,1.832Zm19.773,9.161l1.832,0.916c-1.12,0.662 -2.392,1.781 -3.817,3.359l-1.68,1.985c-0.661,0.713 -1.221,1.298 -1.679,1.756c-0.865,0.814 -1.985,1.756 -3.359,2.824l-3.512,2.596c-0.254,0.204 -0.636,0.535 -1.145,0.993l-1.298,1.068c-1.069,0.866 -1.985,1.374 -2.748,1.527l-0.153,0.077l-3.664,-1.527c1.069,-1.018 2.57,-2.214 4.504,-3.588l2.367,-1.604c0.916,-0.661 1.679,-1.221 2.29,-1.679c4.173,-3.308 7.532,-6.209 10.077,-8.703c0.254,-0.305 0.331,-0.636 0.229,-0.992l1.756,0.992Zm3.74,2.061c1.426,0.865 2.647,1.654 3.665,2.367c-1.272,0.712 -2.672,1.756 -4.199,3.13c-0.509,0.458 -1.145,1.018 -1.908,1.679l-0.84,0.84l-0.84,0.763l-4.962,4.657c-1.985,1.883 -3.614,3.461 -4.886,4.734l-4.962,-2.138l1.832,-1.374c1.781,-1.323 4.25,-3.232 7.405,-5.726c0.662,-0.56 1.374,-1.221 2.138,-1.985l0.992,-0.992l1.603,-1.68l0.611,-0.687c0.56,-0.56 1.018,-1.018 1.374,-1.374c1.12,-1.12 2.087,-1.832 2.901,-2.137l0.076,-0.077Zm13.513,4.886c0.254,-0.509 0.254,-1.043 -0,-1.603c-0.254,-0.611 -0.662,-0.993 -1.221,-1.145l-0.23,-0l-0.229,-0.077l-0.229,0c-0.61,-0.661 -1.399,-0.763 -2.366,-0.305c-0.356,-0.254 -0.865,-0.585 -1.527,-0.992l-0.84,-0.382l-0.687,-0.458l-2.061,-1.298l-5.955,-3.893c-2.035,-1.222 -4.478,-2.494 -7.329,-3.817l-7.481,-3.359c-4.988,-2.189 -10.713,-4.556 -17.177,-7.1c-0.967,-0.357 -3.639,-1.273 -8.016,-2.749c-4.326,-1.425 -7.558,-2.443 -9.695,-3.053c-0.051,-0.662 -0.28,-1.171 -0.687,-1.527c-0.458,-0.407 -0.993,-0.484 -1.603,-0.229l-0.306,0.076c-0.611,-0.254 -1.196,-0.203 -1.756,0.153c-0.661,0.407 -0.967,0.967 -0.916,1.679l-0.992,0.688c-1.629,1.068 -3.944,2.722 -6.947,4.962l-2.825,2.061l-2.901,2.138c-2.545,1.832 -4.453,3.206 -5.726,4.122l-0.229,0.229c-0.916,0.254 -1.374,0.84 -1.374,1.756c0,3.003 0.229,6.489 0.687,10.459l0,3.893l0.077,1.374c-0,0.204 0.051,0.484 0.152,0.84l0.153,0.992c0.153,0.764 0.102,1.349 -0.153,1.756c-0.61,0.916 -0.458,1.705 0.458,2.367c0.917,0.662 1.756,0.662 2.52,-0c10.331,3.613 20.612,7.787 30.842,12.52l-1.451,0.153c-0.865,0.101 -1.959,0.178 -3.282,0.229l-3.512,-0c-2.85,-0 -5.09,0.28 -6.718,0.839c-3.308,1.171 -6.871,3.817 -10.688,7.94l-4.581,5.191c-1.832,2.087 -3.359,3.665 -4.58,4.733c-0.916,0.408 -1.298,1.095 -1.145,2.062c-0.662,0.356 -0.967,0.916 -0.916,1.679c0.051,0.764 0.432,1.323 1.145,1.68c-0,0.814 0.076,1.781 0.229,2.901l0.305,2.901c0.306,2.443 0.382,4.402 0.229,5.878c0,0.458 0.204,0.891 0.611,1.298c0.407,0.407 0.865,0.61 1.374,0.61c4.988,-0.203 11.248,-1.654 18.78,-4.351l4.657,-1.756l4.657,-1.832c3.97,-1.578 6.896,-2.697 8.779,-3.359c2.189,-0.814 4.682,-1.654 7.482,-2.519l7.481,-2.291c6.515,-1.985 11.502,-3.613 14.963,-4.886l0.076,0c0.306,0.051 0.611,0.051 0.917,0c1.934,-0.458 4.02,-1.959 6.26,-4.504l2.595,-3.206c1.069,-1.272 1.909,-2.214 2.52,-2.825c1.883,-1.781 3.893,-3.995 6.03,-6.641c0.713,-0.866 1.273,-1.578 1.68,-2.138c0.611,-0.865 1.094,-1.654 1.451,-2.367c0.814,-0.254 1.221,-0.839 1.221,-1.755l-0,-4.428l0.992,-0.84c0.408,-0.356 0.458,-0.763 0.153,-1.221c-0.305,-0.408 -0.687,-0.535 -1.145,-0.382l-0,-6.871Zm-74.204,-41.453c-0.204,-0.255 -0.433,-0.662 -0.687,-1.222l-0.306,-0.611l-0.229,-0.61l-0.763,-1.222l-0.763,-1.145c-0.917,-1.374 -2.113,-2.494 -3.589,-3.359c-0.254,-0.153 -0.508,-0.178 -0.763,-0.076c-0.204,0.051 -0.382,0.203 -0.534,0.458c-0.102,0.203 -0.128,0.432 -0.077,0.687c0.051,0.254 0.204,0.458 0.458,0.61c1.171,0.713 2.392,2.011 3.665,3.894l1.069,2.061c0.407,0.814 0.788,1.451 1.145,1.909c0.203,0.203 0.432,0.305 0.687,0.305c0.203,0 0.407,-0.102 0.61,-0.305c0.153,-0.153 0.255,-0.357 0.306,-0.611c0.051,-0.305 -0.026,-0.56 -0.229,-0.763Zm5.115,-13.208c-0.204,-0.203 -0.433,-0.305 -0.687,-0.305c-0.204,0.051 -0.407,0.153 -0.611,0.305c-0.153,0.204 -0.255,0.433 -0.305,0.687c-0,0.255 0.076,0.484 0.229,0.688c0.559,0.61 0.941,1.526 1.145,2.748l0.229,2.366l-0,0.688c-0,0.254 0.102,0.483 0.305,0.687c0.204,0.152 0.433,0.229 0.687,0.229c0.255,-0 0.458,-0.077 0.611,-0.229c0.203,-0.204 0.305,-0.433 0.305,-0.687c-0.051,-1.578 -0.152,-2.851 -0.305,-3.818c-0.305,-1.425 -0.84,-2.544 -1.603,-3.359Zm9.313,0.382c-0.152,-0.254 -0.356,-0.382 -0.61,-0.382c-0.255,0.051 -0.458,0.153 -0.611,0.306c-0.204,0.203 -0.331,0.432 -0.382,0.687c0,0.254 0.077,0.483 0.229,0.687c0.255,0.305 0.255,0.916 0,1.832l-0.381,1.069c-0.153,0.407 -0.229,0.687 -0.229,0.84l-0.611,1.985c-0.204,0.763 -0.306,1.425 -0.306,1.984c0,0.611 0.331,0.917 0.993,0.917c0.662,-0 0.967,-0.306 0.916,-0.917c-0,-0.559 0.153,-1.297 0.458,-2.213l0.382,-1.146l0.458,-1.221c0.611,-1.985 0.509,-3.461 -0.306,-4.428Zm15.192,6.489c-0.559,0.102 -1.119,0.306 -1.679,0.611c-0.356,0.203 -0.84,0.509 -1.451,0.916l-1.45,1.221c-0.56,0.459 -1.094,0.713 -1.603,0.764c-0.611,-0 -0.916,0.331 -0.916,0.992c-0,0.611 0.305,0.916 0.916,0.916c0.967,0 2.086,-0.534 3.359,-1.603l1.527,-1.221c0.61,-0.407 1.196,-0.662 1.755,-0.764c0.611,-0.101 0.84,-0.458 0.688,-1.068c-0.153,-0.611 -0.535,-0.866 -1.146,-0.764Zm3.894,5.191c-0.255,0.204 -0.585,0.408 -0.993,0.611l-1.068,0.458c-0.967,0.356 -1.68,0.713 -2.138,1.069c-1.069,0.763 -2.29,1.832 -3.664,3.206c-0.458,0.407 -0.458,0.84 -0,1.298c0.458,0.458 0.916,0.484 1.374,0.076c1.476,-1.475 2.723,-2.544 3.741,-3.206l0.916,-0.534l0.916,-0.382c0.865,-0.356 1.501,-0.662 1.908,-0.916c0.509,-0.356 0.611,-0.789 0.306,-1.298c-0.357,-0.56 -0.789,-0.687 -1.298,-0.382Zm7.329,9.848c-0.357,-0.356 -0.815,-0.559 -1.374,-0.61l-0.764,-0.077l-0.763,0.077l-1.298,-0.077c-0.509,0 -0.916,0.051 -1.222,0.153c-0.356,-0.458 -0.788,-0.534 -1.297,-0.229c-0.509,0.356 -0.611,0.789 -0.306,1.298c0.153,0.203 0.331,0.432 0.535,0.687c0.305,0.356 0.712,0.407 1.221,0.153c0.255,-0.102 0.611,-0.153 1.069,-0.153l0.534,0.076l0.535,0l0.381,-0.076l0.535,-0c0.407,-0.051 0.687,-0 0.84,0.153c0.407,0.407 0.839,0.381 1.297,-0.077c0.458,-0.458 0.484,-0.89 0.077,-1.298Z" style="fill-rule:nonzero;"/></g></svg>