<?xml version="1.0" encoding="UTF-8" standalone="no"?><!DOCTYPE svg PUBLIC "-//W3C//DTD SVG 1.1//EN" "http://www.w3.org/Graphics/SVG/1.1/DTD/svg11.dtd"><svg width="100%" height="100%" viewBox="0 0 1012 922" version="1.1" xmlns="http://www.w3.org/2000/svg" xmlns:xlink="http://www.w3.org/1999/xlink" xml:space="preserve" xmlns:serif="http://www.serif.com/" style="fill-rule:evenodd;clip-rule:evenodd;stroke-linejoin:round;stroke-miterlimit:2;"><rect id="Mesa-de-trabajo1" serif:id="Mesa de trabajo1" x="0" y="0" width="1011.01" height="921.738" style="fill:none;"/><path d="M979.107,103.638c0,-17.729 -7.043,-34.733 -19.58,-47.27c-12.536,-12.537 -29.54,-19.58 -47.27,-19.58c-174,0 -639.499,0 -813.499,0c-17.73,0 -34.733,7.043 -47.27,19.58c-12.537,12.537 -19.58,29.541 -19.58,47.27c0,0.002 0,0.005 0,0.007c0,17.73 7.043,34.733 19.58,47.27c12.537,12.537 29.54,19.58 47.27,19.58c174,0 639.499,0 813.499,0c17.73,0 34.734,-7.043 47.27,-19.58c12.537,-12.537 19.58,-29.54 19.58,-47.27c0,-0.002 0,-0.005 0,-0.007Z" style="fill:#142a3b;"/><path d="M979.107,458.741c0,-17.729 -7.043,-34.733 -19.58,-47.27c-12.536,-12.536 -29.54,-19.58 -47.27,-19.58c-174,0 -639.499,0 -813.499,0c-17.73,0 -34.733,7.044 -47.27,19.58c-12.537,12.537 -19.58,29.541 -19.58,47.27c0,0.003 0,0.005 0,0.007c0,17.73 7.043,34.733 19.58,47.27c12.537,12.537 29.54,19.58 47.27,19.58c174,0 639.499,0 813.499,0c17.73,0 34.734,-7.043 47.27,-19.58c12.537,-12.537 19.58,-29.54 19.58,-47.27c0,-0.002 0,-0.004 0,-0.007Z" style="fill:#142a3b;"/><path d="M979.107,818.093c0,-17.73 -7.043,-34.733 -19.58,-47.27c-12.536,-12.537 -29.54,-19.58 -47.27,-19.58c-174,0 -639.499,0 -813.499,0c-17.73,0 -34.733,7.043 -47.27,19.58c-12.537,12.537 -19.58,29.54 -19.58,47.27c0,0.002 0,0.004 0,0.007c0,17.729 7.043,34.733 19.58,47.27c12.537,12.537 29.54,19.58 47.27,19.58c174,0 639.499,0 813.499,0c17.73,0 34.734,-7.043 47.27,-19.58c12.537,-12.537 19.58,-29.541 19.58,-47.27c0,-0.003 0,-0.005 0,-0.007Z" style="fill:#142a3b;"/></svg>